<svg xmlns="http://www.w3.org/2000/svg" xmlns:xlink="http://www.w3.org/1999/xlink" width="500" zoomAndPan="magnify" viewBox="0 0 375 374.999991" height="500" preserveAspectRatio="xMidYMid meet" version="1.0"><defs><g/></defs><g fill="#5ce1e6" fill-opacity="1"><g transform="translate(15.025113, 203.790175)"><g><path d="M 2.71875 -36.609375 L 10.65625 -36.609375 L 10.65625 -36.0625 L 10.375 -36.0625 C 10.113281 -36.0625 9.867188 -35.957031 9.640625 -35.75 C 9.421875 -35.539062 9.238281 -35.296875 9.09375 -35.015625 C 8.945312 -34.742188 8.828125 -34.429688 8.734375 -34.078125 C 8.640625 -33.734375 8.59375 -33.429688 8.59375 -33.171875 L 8.59375 -3.609375 C 8.59375 -3.304688 8.628906 -2.976562 8.703125 -2.625 C 8.773438 -2.28125 8.894531 -1.957031 9.0625 -1.65625 C 9.226562 -1.363281 9.410156 -1.109375 9.609375 -0.890625 C 9.816406 -0.671875 10.070312 -0.5625 10.375 -0.5625 L 10.65625 -0.5625 L 10.65625 0 L 2.71875 0 L 2.71875 -0.5625 L 3 -0.5625 C 3.289062 -0.5625 3.546875 -0.660156 3.765625 -0.859375 C 3.992188 -1.066406 4.191406 -1.328125 4.359375 -1.640625 C 4.523438 -1.953125 4.644531 -2.28125 4.71875 -2.625 C 4.789062 -2.976562 4.828125 -3.304688 4.828125 -3.609375 L 4.828125 -33.171875 C 4.828125 -33.429688 4.789062 -33.726562 4.71875 -34.0625 C 4.644531 -34.394531 4.523438 -34.707031 4.359375 -35 C 4.191406 -35.289062 3.992188 -35.539062 3.765625 -35.75 C 3.546875 -35.957031 3.289062 -36.0625 3 -36.0625 L 2.71875 -36.0625 Z M 2.71875 -36.609375 "/></g></g></g><g fill="#5ce1e6" fill-opacity="1"><g transform="translate(28.502757, 203.790175)"><g><path d="M 8.328125 -0.5625 L 8.59375 -0.5625 L 8.59375 0 L 2.4375 0 L 2.4375 -0.5625 L 2.71875 -0.5625 C 2.976562 -0.5625 3.226562 -0.671875 3.46875 -0.890625 C 3.707031 -1.109375 3.898438 -1.363281 4.046875 -1.65625 C 4.191406 -1.957031 4.3125 -2.28125 4.40625 -2.625 C 4.5 -2.976562 4.546875 -3.304688 4.546875 -3.609375 L 4.546875 -33.171875 C 4.546875 -33.429688 4.515625 -33.726562 4.453125 -34.0625 C 4.398438 -34.394531 4.300781 -34.707031 4.15625 -35 C 4.007812 -35.289062 3.804688 -35.539062 3.546875 -35.75 C 3.285156 -35.957031 2.972656 -36.0625 2.609375 -36.0625 L 2.328125 -36.0625 L 2.328125 -36.609375 L 7.9375 -36.609375 L 28.0625 -4.875 L 28.0625 -33.171875 C 28.0625 -33.429688 28.015625 -33.726562 27.921875 -34.0625 C 27.835938 -34.394531 27.710938 -34.707031 27.546875 -35 C 27.378906 -35.289062 27.179688 -35.539062 26.953125 -35.75 C 26.734375 -35.957031 26.476562 -36.0625 26.1875 -36.0625 L 25.90625 -36.0625 L 25.90625 -36.609375 L 32.109375 -36.609375 L 32.109375 -36.0625 L 31.84375 -36.0625 C 31.539062 -36.0625 31.28125 -35.957031 31.0625 -35.75 C 30.84375 -35.539062 30.648438 -35.289062 30.484375 -35 C 30.316406 -34.707031 30.195312 -34.394531 30.125 -34.0625 C 30.050781 -33.726562 30.015625 -33.429688 30.015625 -33.171875 L 30.015625 0 L 26.5625 0 L 6.484375 -31.84375 L 6.484375 -3.609375 C 6.484375 -3.304688 6.519531 -2.976562 6.59375 -2.625 C 6.675781 -2.28125 6.800781 -1.957031 6.96875 -1.65625 C 7.132812 -1.363281 7.328125 -1.109375 7.546875 -0.890625 C 7.765625 -0.671875 8.023438 -0.5625 8.328125 -0.5625 Z M 8.328125 -0.5625 "/></g></g></g><g fill="#5ce1e6" fill-opacity="1"><g transform="translate(63.333885, 203.790175)"><g><path d="M 10.203125 -0.5625 L 10.484375 -0.5625 L 10.484375 0 L 2.546875 0 L 2.546875 -0.5625 L 2.828125 -0.5625 C 3.117188 -0.5625 3.375 -0.660156 3.59375 -0.859375 C 3.820312 -1.066406 4.019531 -1.316406 4.1875 -1.609375 C 4.351562 -1.898438 4.472656 -2.210938 4.546875 -2.546875 C 4.617188 -2.878906 4.65625 -3.195312 4.65625 -3.5 L 4.65625 -33.171875 C 4.65625 -33.429688 4.617188 -33.726562 4.546875 -34.0625 C 4.472656 -34.394531 4.363281 -34.707031 4.21875 -35 C 4.070312 -35.289062 3.875 -35.539062 3.625 -35.75 C 3.382812 -35.957031 3.117188 -36.0625 2.828125 -36.0625 L 2.546875 -36.0625 L 2.546875 -36.609375 L 23.859375 -36.609375 L 23.859375 -31.453125 L 23.296875 -31.453125 C 23.296875 -32.304688 23.007812 -33.054688 22.4375 -33.703125 C 21.863281 -34.347656 20.96875 -34.671875 19.75 -34.671875 L 8.375 -34.671875 L 8.375 -20.640625 L 17.578125 -20.640625 C 18.429688 -20.640625 19.144531 -20.894531 19.71875 -21.40625 C 20.289062 -21.925781 20.578125 -22.535156 20.578125 -23.234375 L 21.140625 -23.234375 L 21.140625 -16.3125 L 20.578125 -16.3125 C 20.578125 -16.976562 20.300781 -17.550781 19.75 -18.03125 C 19.195312 -18.507812 18.472656 -18.75 17.578125 -18.75 L 8.375 -18.75 L 8.375 -3.5 C 8.375 -3.195312 8.410156 -2.878906 8.484375 -2.546875 C 8.554688 -2.210938 8.675781 -1.898438 8.84375 -1.609375 C 9.007812 -1.316406 9.203125 -1.066406 9.421875 -0.859375 C 9.648438 -0.660156 9.910156 -0.5625 10.203125 -0.5625 Z M 10.203125 -0.5625 "/></g></g></g><g fill="#5ce1e6" fill-opacity="1"><g transform="translate(86.017952, 203.790175)"><g><path d="M 21.1875 -37.171875 C 24.070312 -37.171875 26.660156 -36.660156 28.953125 -35.640625 C 31.242188 -34.617188 33.191406 -33.25 34.796875 -31.53125 C 36.410156 -29.8125 37.648438 -27.8125 38.515625 -25.53125 C 39.390625 -23.257812 39.828125 -20.890625 39.828125 -18.421875 C 39.828125 -15.640625 39.316406 -13.082031 38.296875 -10.75 C 37.285156 -8.425781 35.890625 -6.429688 34.109375 -4.765625 C 32.335938 -3.109375 30.273438 -1.804688 27.921875 -0.859375 C 25.578125 0.0859375 23.070312 0.5625 20.40625 0.5625 C 17.5625 0.5625 15 0.046875 12.71875 -0.984375 C 10.445312 -2.023438 8.523438 -3.394531 6.953125 -5.09375 C 5.390625 -6.800781 4.179688 -8.765625 3.328125 -10.984375 C 2.472656 -13.203125 2.046875 -15.515625 2.046875 -17.921875 C 2.046875 -20.285156 2.472656 -22.625 3.328125 -24.9375 C 4.179688 -27.25 5.429688 -29.3125 7.078125 -31.125 C 8.722656 -32.9375 10.726562 -34.394531 13.09375 -35.5 C 15.457031 -36.613281 18.15625 -37.171875 21.1875 -37.171875 Z M 21.140625 -1.390625 C 23.609375 -1.492188 25.773438 -2.054688 27.640625 -3.078125 C 29.515625 -4.097656 31.078125 -5.390625 32.328125 -6.953125 C 33.585938 -8.523438 34.523438 -10.253906 35.140625 -12.140625 C 35.753906 -14.035156 36.0625 -15.90625 36.0625 -17.75 C 36.0625 -19.78125 35.691406 -21.832031 34.953125 -23.90625 C 34.210938 -25.976562 33.15625 -27.851562 31.78125 -29.53125 C 30.414062 -31.21875 28.78125 -32.585938 26.875 -33.640625 C 24.96875 -34.691406 22.832031 -35.21875 20.46875 -35.21875 C 18.175781 -35.21875 16.125 -34.707031 14.3125 -33.6875 C 12.5 -32.675781 10.953125 -31.375 9.671875 -29.78125 C 8.398438 -28.195312 7.429688 -26.421875 6.765625 -24.453125 C 6.097656 -22.492188 5.765625 -20.570312 5.765625 -18.6875 C 5.765625 -16.65625 6.148438 -14.613281 6.921875 -12.5625 C 7.703125 -10.507812 8.773438 -8.648438 10.140625 -6.984375 C 11.515625 -5.328125 13.132812 -3.976562 15 -2.9375 C 16.875 -1.90625 18.921875 -1.390625 21.140625 -1.390625 Z M 21.140625 -1.390625 "/></g></g></g><g fill="#5ce1e6" fill-opacity="1"><g transform="translate(128.225736, 203.790175)"><g/></g></g><g fill="#5ce1e6" fill-opacity="1"><g transform="translate(142.646267, 203.790175)"><g><path d="M 2.4375 -36.609375 L 10.3125 -36.609375 C 14.414062 -36.609375 17.53125 -35.820312 19.65625 -34.25 C 21.789062 -32.675781 22.859375 -30.445312 22.859375 -27.5625 C 22.859375 -26.007812 22.488281 -24.625 21.75 -23.40625 C 21.007812 -22.1875 20.035156 -21.160156 18.828125 -20.328125 C 17.628906 -19.492188 16.28125 -18.851562 14.78125 -18.40625 C 13.28125 -17.96875 11.789062 -17.75 10.3125 -17.75 L 8.203125 -17.75 L 8.203125 -3.609375 C 8.203125 -3.304688 8.238281 -2.976562 8.3125 -2.625 C 8.394531 -2.28125 8.519531 -1.957031 8.6875 -1.65625 C 8.851562 -1.363281 9.035156 -1.109375 9.234375 -0.890625 C 9.441406 -0.671875 9.691406 -0.5625 9.984375 -0.5625 L 10.265625 -0.5625 L 10.265625 0 L 2.4375 0 L 2.4375 -0.5625 L 2.71875 -0.5625 C 2.976562 -0.5625 3.21875 -0.671875 3.4375 -0.890625 C 3.65625 -1.109375 3.835938 -1.363281 3.984375 -1.65625 C 4.140625 -1.957031 4.253906 -2.28125 4.328125 -2.625 C 4.398438 -2.976562 4.4375 -3.304688 4.4375 -3.609375 L 4.4375 -33.171875 C 4.4375 -33.691406 4.285156 -34.28125 3.984375 -34.9375 C 3.691406 -35.601562 3.269531 -35.976562 2.71875 -36.0625 L 2.4375 -36.0625 Z M 8.203125 -34.671875 L 8.203125 -19.6875 L 9.875 -19.6875 C 11.351562 -19.6875 12.675781 -19.890625 13.84375 -20.296875 C 15.007812 -20.703125 15.976562 -21.238281 16.75 -21.90625 C 17.53125 -22.570312 18.125 -23.328125 18.53125 -24.171875 C 18.9375 -25.023438 19.140625 -25.898438 19.140625 -26.796875 C 19.140625 -27.867188 18.960938 -28.875 18.609375 -29.8125 C 18.253906 -30.757812 17.679688 -31.59375 16.890625 -32.3125 C 16.097656 -33.03125 15.050781 -33.601562 13.75 -34.03125 C 12.457031 -34.457031 10.867188 -34.671875 8.984375 -34.671875 Z M 8.203125 -34.671875 "/></g></g></g><g fill="#5ce1e6" fill-opacity="1"><g transform="translate(167.715804, 203.790175)"><g><path d="M 2.5 -0.5625 L 2.78125 -0.5625 C 3.070312 -0.5625 3.328125 -0.660156 3.546875 -0.859375 C 3.773438 -1.066406 3.96875 -1.316406 4.125 -1.609375 C 4.289062 -1.898438 4.421875 -2.210938 4.515625 -2.546875 C 4.609375 -2.878906 4.65625 -3.195312 4.65625 -3.5 L 4.65625 -33.171875 C 4.65625 -33.429688 4.609375 -33.726562 4.515625 -34.0625 C 4.421875 -34.394531 4.289062 -34.707031 4.125 -35 C 3.96875 -35.289062 3.773438 -35.539062 3.546875 -35.75 C 3.328125 -35.957031 3.070312 -36.0625 2.78125 -36.0625 L 2.5 -36.0625 L 2.5 -36.609375 L 23.859375 -36.609375 L 23.859375 -31.453125 L 23.296875 -31.453125 C 23.222656 -32.304688 22.890625 -33.054688 22.296875 -33.703125 C 21.703125 -34.347656 20.78125 -34.671875 19.53125 -34.671875 L 8.375 -34.671875 L 8.375 -20.640625 L 17.578125 -20.640625 C 18.429688 -20.640625 19.144531 -20.894531 19.71875 -21.40625 C 20.289062 -21.925781 20.578125 -22.535156 20.578125 -23.234375 L 21.140625 -23.234375 L 21.140625 -16.3125 L 20.578125 -16.3125 C 20.578125 -16.976562 20.300781 -17.550781 19.75 -18.03125 C 19.195312 -18.507812 18.472656 -18.75 17.578125 -18.75 L 8.375 -18.75 L 8.375 -1.9375 L 20.53125 -1.9375 C 21.226562 -1.9375 21.832031 -2.101562 22.34375 -2.4375 C 22.863281 -2.769531 23.300781 -3.164062 23.65625 -3.625 C 24.007812 -4.09375 24.269531 -4.59375 24.4375 -5.125 C 24.601562 -5.664062 24.6875 -6.117188 24.6875 -6.484375 L 25.234375 -6.484375 L 25.234375 0 L 2.5 0 Z M 2.5 -0.5625 "/></g></g></g><g fill="#5ce1e6" fill-opacity="1"><g transform="translate(194.615643, 203.790175)"><g><path d="M 2.5 -0.5625 L 2.78125 -0.5625 C 3.070312 -0.5625 3.328125 -0.660156 3.546875 -0.859375 C 3.773438 -1.066406 3.96875 -1.316406 4.125 -1.609375 C 4.289062 -1.898438 4.421875 -2.210938 4.515625 -2.546875 C 4.609375 -2.878906 4.65625 -3.195312 4.65625 -3.5 L 4.65625 -33.171875 C 4.65625 -33.429688 4.609375 -33.726562 4.515625 -34.0625 C 4.421875 -34.394531 4.289062 -34.707031 4.125 -35 C 3.96875 -35.289062 3.773438 -35.539062 3.546875 -35.75 C 3.328125 -35.957031 3.070312 -36.0625 2.78125 -36.0625 L 2.5 -36.0625 L 2.5 -36.609375 L 10.484375 -36.609375 L 10.484375 -36.0625 L 10.203125 -36.0625 C 9.910156 -36.0625 9.648438 -35.957031 9.421875 -35.75 C 9.203125 -35.539062 9.019531 -35.289062 8.875 -35 C 8.726562 -34.707031 8.609375 -34.394531 8.515625 -34.0625 C 8.421875 -33.726562 8.375 -33.429688 8.375 -33.171875 L 8.375 -2.046875 L 20.53125 -2.046875 C 21.226562 -2.046875 21.832031 -2.210938 22.34375 -2.546875 C 22.863281 -2.878906 23.300781 -3.296875 23.65625 -3.796875 C 24.007812 -4.296875 24.269531 -4.832031 24.4375 -5.40625 C 24.601562 -5.976562 24.6875 -6.503906 24.6875 -6.984375 L 25.234375 -6.984375 L 25.234375 0 L 2.5 0 Z M 2.5 -0.5625 "/></g></g></g><g fill="#5ce1e6" fill-opacity="1"><g transform="translate(220.406211, 203.790175)"><g><path d="M 23.6875 -0.5625 L 23.96875 -0.5625 C 24.851562 -0.5625 25.296875 -0.96875 25.296875 -1.78125 C 25.296875 -2.070312 25.238281 -2.382812 25.125 -2.71875 L 20.140625 -16.203125 L 10.421875 -16.203125 L 5.609375 -2.9375 C 5.492188 -2.644531 5.4375 -2.367188 5.4375 -2.109375 C 5.4375 -1.628906 5.566406 -1.25 5.828125 -0.96875 C 6.085938 -0.695312 6.363281 -0.5625 6.65625 -0.5625 L 6.9375 -0.5625 L 6.9375 0 L 0.78125 0 L 0.78125 -0.5625 L 1.046875 -0.5625 C 1.535156 -0.5625 2.007812 -0.847656 2.46875 -1.421875 C 2.925781 -1.992188 3.304688 -2.664062 3.609375 -3.4375 L 16.3125 -37.28125 L 28.734375 -3.765625 C 28.992188 -3.023438 29.351562 -2.304688 29.8125 -1.609375 C 30.28125 -0.910156 30.882812 -0.5625 31.625 -0.5625 L 31.890625 -0.5625 L 31.890625 0 L 23.6875 0 Z M 10.984375 -18.078125 L 19.53125 -18.078125 L 15.25 -29.671875 Z M 10.984375 -18.078125 "/></g></g></g><g fill="#5ce1e6" fill-opacity="1"><g transform="translate(253.12972, 203.790175)"><g><path d="M 2.5 -0.5625 L 2.78125 -0.5625 C 3.070312 -0.5625 3.328125 -0.660156 3.546875 -0.859375 C 3.773438 -1.066406 3.96875 -1.316406 4.125 -1.609375 C 4.289062 -1.898438 4.421875 -2.210938 4.515625 -2.546875 C 4.609375 -2.878906 4.65625 -3.195312 4.65625 -3.5 L 4.65625 -33.171875 C 4.65625 -33.429688 4.609375 -33.726562 4.515625 -34.0625 C 4.421875 -34.394531 4.289062 -34.707031 4.125 -35 C 3.96875 -35.289062 3.773438 -35.539062 3.546875 -35.75 C 3.328125 -35.957031 3.070312 -36.0625 2.78125 -36.0625 L 2.5 -36.0625 L 2.5 -36.609375 L 10.484375 -36.609375 L 10.484375 -36.0625 L 10.203125 -36.0625 C 9.910156 -36.0625 9.648438 -35.957031 9.421875 -35.75 C 9.203125 -35.539062 9.019531 -35.289062 8.875 -35 C 8.726562 -34.707031 8.609375 -34.394531 8.515625 -34.0625 C 8.421875 -33.726562 8.375 -33.429688 8.375 -33.171875 L 8.375 -2.046875 L 20.53125 -2.046875 C 21.226562 -2.046875 21.832031 -2.210938 22.34375 -2.546875 C 22.863281 -2.878906 23.300781 -3.296875 23.65625 -3.796875 C 24.007812 -4.296875 24.269531 -4.832031 24.4375 -5.40625 C 24.601562 -5.976562 24.6875 -6.503906 24.6875 -6.984375 L 25.234375 -6.984375 L 25.234375 0 L 2.5 0 Z M 2.5 -0.5625 "/></g></g></g><g fill="#5ce1e6" fill-opacity="1"><g transform="translate(278.920276, 203.790175)"><g><path d="M 2.71875 -36.609375 L 10.65625 -36.609375 L 10.65625 -36.0625 L 10.375 -36.0625 C 10.113281 -36.0625 9.867188 -35.957031 9.640625 -35.75 C 9.421875 -35.539062 9.238281 -35.296875 9.09375 -35.015625 C 8.945312 -34.742188 8.828125 -34.429688 8.734375 -34.078125 C 8.640625 -33.734375 8.59375 -33.429688 8.59375 -33.171875 L 8.59375 -3.609375 C 8.59375 -3.304688 8.628906 -2.976562 8.703125 -2.625 C 8.773438 -2.28125 8.894531 -1.957031 9.0625 -1.65625 C 9.226562 -1.363281 9.410156 -1.109375 9.609375 -0.890625 C 9.816406 -0.671875 10.070312 -0.5625 10.375 -0.5625 L 10.65625 -0.5625 L 10.65625 0 L 2.71875 0 L 2.71875 -0.5625 L 3 -0.5625 C 3.289062 -0.5625 3.546875 -0.660156 3.765625 -0.859375 C 3.992188 -1.066406 4.191406 -1.328125 4.359375 -1.640625 C 4.523438 -1.953125 4.644531 -2.28125 4.71875 -2.625 C 4.789062 -2.976562 4.828125 -3.304688 4.828125 -3.609375 L 4.828125 -33.171875 C 4.828125 -33.429688 4.789062 -33.726562 4.71875 -34.0625 C 4.644531 -34.394531 4.523438 -34.707031 4.359375 -35 C 4.191406 -35.289062 3.992188 -35.539062 3.765625 -35.75 C 3.546875 -35.957031 3.289062 -36.0625 3 -36.0625 L 2.71875 -36.0625 Z M 2.71875 -36.609375 "/></g></g></g><g fill="#5ce1e6" fill-opacity="1"><g transform="translate(292.397931, 203.790175)"><g><path d="M 23.6875 -0.5625 L 23.96875 -0.5625 C 24.851562 -0.5625 25.296875 -0.96875 25.296875 -1.78125 C 25.296875 -2.070312 25.238281 -2.382812 25.125 -2.71875 L 20.140625 -16.203125 L 10.421875 -16.203125 L 5.609375 -2.9375 C 5.492188 -2.644531 5.4375 -2.367188 5.4375 -2.109375 C 5.4375 -1.628906 5.566406 -1.25 5.828125 -0.96875 C 6.085938 -0.695312 6.363281 -0.5625 6.65625 -0.5625 L 6.9375 -0.5625 L 6.9375 0 L 0.78125 0 L 0.78125 -0.5625 L 1.046875 -0.5625 C 1.535156 -0.5625 2.007812 -0.847656 2.46875 -1.421875 C 2.925781 -1.992188 3.304688 -2.664062 3.609375 -3.4375 L 16.3125 -37.28125 L 28.734375 -3.765625 C 28.992188 -3.023438 29.351562 -2.304688 29.8125 -1.609375 C 30.28125 -0.910156 30.882812 -0.5625 31.625 -0.5625 L 31.890625 -0.5625 L 31.890625 0 L 23.6875 0 Z M 10.984375 -18.078125 L 19.53125 -18.078125 L 15.25 -29.671875 Z M 10.984375 -18.078125 "/></g></g></g><g fill="#5ce1e6" fill-opacity="1"><g transform="translate(325.121441, 203.790175)"><g><path d="M 8.328125 -0.5625 L 8.59375 -0.5625 L 8.59375 0 L 2.4375 0 L 2.4375 -0.5625 L 2.71875 -0.5625 C 2.976562 -0.5625 3.226562 -0.671875 3.46875 -0.890625 C 3.707031 -1.109375 3.898438 -1.363281 4.046875 -1.65625 C 4.191406 -1.957031 4.3125 -2.28125 4.40625 -2.625 C 4.5 -2.976562 4.546875 -3.304688 4.546875 -3.609375 L 4.546875 -33.171875 C 4.546875 -33.429688 4.515625 -33.726562 4.453125 -34.0625 C 4.398438 -34.394531 4.300781 -34.707031 4.15625 -35 C 4.007812 -35.289062 3.804688 -35.539062 3.546875 -35.75 C 3.285156 -35.957031 2.972656 -36.0625 2.609375 -36.0625 L 2.328125 -36.0625 L 2.328125 -36.609375 L 7.9375 -36.609375 L 28.0625 -4.875 L 28.0625 -33.171875 C 28.0625 -33.429688 28.015625 -33.726562 27.921875 -34.0625 C 27.835938 -34.394531 27.710938 -34.707031 27.546875 -35 C 27.378906 -35.289062 27.179688 -35.539062 26.953125 -35.75 C 26.734375 -35.957031 26.476562 -36.0625 26.1875 -36.0625 L 25.90625 -36.0625 L 25.90625 -36.609375 L 32.109375 -36.609375 L 32.109375 -36.0625 L 31.84375 -36.0625 C 31.539062 -36.0625 31.28125 -35.957031 31.0625 -35.75 C 30.84375 -35.539062 30.648438 -35.289062 30.484375 -35 C 30.316406 -34.707031 30.195312 -34.394531 30.125 -34.0625 C 30.050781 -33.726562 30.015625 -33.429688 30.015625 -33.171875 L 30.015625 0 L 26.5625 0 L 6.484375 -31.84375 L 6.484375 -3.609375 C 6.484375 -3.304688 6.519531 -2.976562 6.59375 -2.625 C 6.675781 -2.28125 6.800781 -1.957031 6.96875 -1.65625 C 7.132812 -1.363281 7.328125 -1.109375 7.546875 -0.890625 C 7.765625 -0.671875 8.023438 -0.5625 8.328125 -0.5625 Z M 8.328125 -0.5625 "/></g></g></g><path stroke-linecap="butt" transform="matrix(0.749993, 0.00326061, -0.00326061, 0.749993, 14.994384, 217.492164)" fill="none" stroke-linejoin="miter" d="M 0.000558281 2.000048 L 460.036196 2.000053 " stroke="#5ce1e6" stroke-width="4" stroke-opacity="1" stroke-miterlimit="4"/></svg>