<svg xmlns="http://www.w3.org/2000/svg" xmlns:xlink="http://www.w3.org/1999/xlink" width="1920" zoomAndPan="magnify" viewBox="0 0 1440 809.999993" height="1080" preserveAspectRatio="xMidYMid meet" version="1.0"><defs><g/></defs><g fill="#5ce1e6" fill-opacity="1"><g transform="translate(38.771031, 471.197153)"><g><path d="M 10.71875 -144.46875 L 42.03125 -144.46875 L 42.03125 -142.28125 L 40.9375 -142.28125 C 39.914062 -142.28125 38.96875 -141.878906 38.09375 -141.078125 C 37.21875 -140.273438 36.484375 -139.328125 35.890625 -138.234375 C 35.304688 -137.140625 34.832031 -135.894531 34.46875 -134.5 C 34.101562 -133.113281 33.921875 -131.910156 33.921875 -130.890625 L 33.921875 -14.234375 C 33.921875 -13.066406 34.066406 -11.785156 34.359375 -10.390625 C 34.648438 -9.003906 35.125 -7.726562 35.78125 -6.5625 C 36.445312 -5.394531 37.179688 -4.375 37.984375 -3.5 C 38.785156 -2.625 39.769531 -2.1875 40.9375 -2.1875 L 42.03125 -2.1875 L 42.03125 0 L 10.71875 0 L 10.71875 -2.1875 L 11.8125 -2.1875 C 12.988281 -2.1875 14.015625 -2.585938 14.890625 -3.390625 C 15.765625 -4.191406 16.53125 -5.210938 17.1875 -6.453125 C 17.84375 -7.691406 18.316406 -9.003906 18.609375 -10.390625 C 18.898438 -11.785156 19.046875 -13.066406 19.046875 -14.234375 L 19.046875 -130.890625 C 19.046875 -131.910156 18.898438 -133.078125 18.609375 -134.390625 C 18.316406 -135.710938 17.84375 -136.957031 17.1875 -138.125 C 16.53125 -139.289062 15.765625 -140.273438 14.890625 -141.078125 C 14.015625 -141.878906 12.988281 -142.28125 11.8125 -142.28125 L 10.71875 -142.28125 Z M 10.71875 -144.46875 "/></g></g></g><g fill="#5ce1e6" fill-opacity="1"><g transform="translate(91.961115, 471.197153)"><g><path d="M 32.828125 -2.1875 L 33.921875 -2.1875 L 33.921875 0 L 9.625 0 L 9.625 -2.1875 L 10.71875 -2.1875 C 11.75 -2.1875 12.738281 -2.625 13.6875 -3.5 C 14.632812 -4.375 15.398438 -5.394531 15.984375 -6.5625 C 16.566406 -7.726562 17.039062 -9.003906 17.40625 -10.390625 C 17.769531 -11.785156 17.953125 -13.066406 17.953125 -14.234375 L 17.953125 -130.890625 C 17.953125 -131.910156 17.84375 -133.078125 17.625 -134.390625 C 17.40625 -135.710938 17.003906 -136.957031 16.421875 -138.125 C 15.835938 -139.289062 15.035156 -140.273438 14.015625 -141.078125 C 12.992188 -141.878906 11.75 -142.28125 10.28125 -142.28125 L 9.1875 -142.28125 L 9.1875 -144.46875 L 31.296875 -144.46875 L 110.765625 -19.265625 L 110.765625 -130.890625 C 110.765625 -131.910156 110.582031 -133.078125 110.21875 -134.390625 C 109.851562 -135.710938 109.335938 -136.957031 108.671875 -138.125 C 108.015625 -139.289062 107.25 -140.273438 106.375 -141.078125 C 105.5 -141.878906 104.476562 -142.28125 103.3125 -142.28125 L 102.21875 -142.28125 L 102.21875 -144.46875 L 126.734375 -144.46875 L 126.734375 -142.28125 L 125.640625 -142.28125 C 124.472656 -142.28125 123.453125 -141.878906 122.578125 -141.078125 C 121.703125 -140.273438 120.9375 -139.289062 120.28125 -138.125 C 119.625 -136.957031 119.148438 -135.710938 118.859375 -134.390625 C 118.566406 -133.078125 118.421875 -131.910156 118.421875 -130.890625 L 118.421875 0 L 104.84375 0 L 25.609375 -125.640625 L 25.609375 -14.234375 C 25.609375 -13.066406 25.753906 -11.785156 26.046875 -10.390625 C 26.335938 -9.003906 26.8125 -7.726562 27.46875 -6.5625 C 28.125 -5.394531 28.890625 -4.375 29.765625 -3.5 C 30.640625 -2.625 31.660156 -2.1875 32.828125 -2.1875 Z M 32.828125 -2.1875 "/></g></g></g><g fill="#5ce1e6" fill-opacity="1"><g transform="translate(229.42354, 471.197153)"><g><path d="M 40.28125 -2.1875 L 41.375 -2.1875 L 41.375 0 L 10.0625 0 L 10.0625 -2.1875 L 11.15625 -2.1875 C 12.332031 -2.1875 13.359375 -2.585938 14.234375 -3.390625 C 15.109375 -4.191406 15.875 -5.175781 16.53125 -6.34375 C 17.1875 -7.507812 17.660156 -8.75 17.953125 -10.0625 C 18.242188 -11.375 18.390625 -12.617188 18.390625 -13.796875 L 18.390625 -130.890625 C 18.390625 -131.910156 18.242188 -133.078125 17.953125 -134.390625 C 17.660156 -135.710938 17.222656 -136.957031 16.640625 -138.125 C 16.054688 -139.289062 15.289062 -140.273438 14.34375 -141.078125 C 13.394531 -141.878906 12.332031 -142.28125 11.15625 -142.28125 L 10.0625 -142.28125 L 10.0625 -144.46875 L 94.125 -144.46875 L 94.125 -124.109375 L 91.9375 -124.109375 C 91.9375 -127.460938 90.804688 -130.414062 88.546875 -132.96875 C 86.285156 -135.53125 82.742188 -136.8125 77.921875 -136.8125 L 33.046875 -136.8125 L 33.046875 -81.421875 L 69.390625 -81.421875 C 72.742188 -81.421875 75.550781 -82.441406 77.8125 -84.484375 C 80.070312 -86.535156 81.203125 -88.945312 81.203125 -91.71875 L 83.390625 -91.71875 L 83.390625 -64.359375 L 81.203125 -64.359375 C 81.203125 -66.984375 80.109375 -69.242188 77.921875 -71.140625 C 75.734375 -73.035156 72.890625 -73.984375 69.390625 -73.984375 L 33.046875 -73.984375 L 33.046875 -13.796875 C 33.046875 -12.617188 33.191406 -11.375 33.484375 -10.0625 C 33.773438 -8.75 34.25 -7.507812 34.90625 -6.34375 C 35.5625 -5.175781 36.328125 -4.191406 37.203125 -3.390625 C 38.085938 -2.585938 39.113281 -2.1875 40.28125 -2.1875 Z M 40.28125 -2.1875 "/></g></g></g><g fill="#5ce1e6" fill-opacity="1"><g transform="translate(318.949239, 471.197153)"><g><path d="M 83.609375 -146.65625 C 94.992188 -146.65625 105.207031 -144.648438 114.25 -140.640625 C 123.300781 -136.628906 131 -131.226562 137.34375 -124.4375 C 143.695312 -117.65625 148.585938 -109.773438 152.015625 -100.796875 C 155.441406 -91.828125 157.15625 -82.453125 157.15625 -72.671875 C 157.15625 -61.722656 155.148438 -51.648438 151.140625 -42.453125 C 147.128906 -33.265625 141.617188 -25.382812 134.609375 -18.8125 C 127.609375 -12.25 119.472656 -7.109375 110.203125 -3.390625 C 100.941406 0.328125 91.054688 2.1875 80.546875 2.1875 C 69.316406 2.1875 59.210938 0.144531 50.234375 -3.9375 C 41.265625 -8.019531 33.675781 -13.414062 27.46875 -20.125 C 21.269531 -26.84375 16.488281 -34.578125 13.125 -43.328125 C 9.769531 -52.085938 8.09375 -61.210938 8.09375 -70.703125 C 8.09375 -80.035156 9.769531 -89.265625 13.125 -98.390625 C 16.488281 -107.515625 21.414062 -115.648438 27.90625 -122.796875 C 34.40625 -129.941406 42.320312 -135.703125 51.65625 -140.078125 C 61 -144.460938 71.648438 -146.65625 83.609375 -146.65625 Z M 83.390625 -5.46875 C 93.171875 -5.90625 101.742188 -8.128906 109.109375 -12.140625 C 116.484375 -16.160156 122.648438 -21.269531 127.609375 -27.46875 C 132.578125 -33.675781 136.265625 -40.5 138.671875 -47.9375 C 141.078125 -55.375 142.28125 -62.742188 142.28125 -70.046875 C 142.28125 -78.066406 140.816406 -86.160156 137.890625 -94.328125 C 134.972656 -102.503906 130.816406 -109.910156 125.421875 -116.546875 C 120.023438 -123.191406 113.566406 -128.59375 106.046875 -132.75 C 98.535156 -136.914062 90.109375 -139 80.765625 -139 C 71.722656 -139 63.625 -136.988281 56.46875 -132.96875 C 49.320312 -128.957031 43.226562 -123.8125 38.1875 -117.53125 C 33.15625 -111.257812 29.328125 -104.253906 26.703125 -96.515625 C 24.078125 -88.785156 22.765625 -81.203125 22.765625 -73.765625 C 22.765625 -65.742188 24.296875 -57.679688 27.359375 -49.578125 C 30.421875 -41.484375 34.648438 -34.148438 40.046875 -27.578125 C 45.453125 -21.015625 51.835938 -15.6875 59.203125 -11.59375 C 66.578125 -7.507812 74.640625 -5.46875 83.390625 -5.46875 Z M 83.390625 -5.46875 "/></g></g></g><g fill="#5ce1e6" fill-opacity="1"><g transform="translate(485.523962, 471.197153)"><g/></g></g><g fill="#5ce1e6" fill-opacity="1"><g transform="translate(542.43517, 471.197153)"><g><path d="M 9.625 -144.46875 L 40.71875 -144.46875 C 56.914062 -144.46875 69.207031 -141.363281 77.59375 -135.15625 C 85.988281 -128.957031 90.1875 -120.164062 90.1875 -108.78125 C 90.1875 -102.65625 88.722656 -97.1875 85.796875 -92.375 C 82.878906 -87.5625 79.050781 -83.507812 74.3125 -80.21875 C 69.570312 -76.9375 64.242188 -74.421875 58.328125 -72.671875 C 52.421875 -70.921875 46.550781 -70.046875 40.71875 -70.046875 L 32.390625 -70.046875 L 32.390625 -14.234375 C 32.390625 -13.066406 32.535156 -11.785156 32.828125 -10.390625 C 33.117188 -9.003906 33.59375 -7.726562 34.25 -6.5625 C 34.90625 -5.394531 35.632812 -4.375 36.4375 -3.5 C 37.25 -2.625 38.238281 -2.1875 39.40625 -2.1875 L 40.5 -2.1875 L 40.5 0 L 9.625 0 L 9.625 -2.1875 L 10.71875 -2.1875 C 11.75 -2.1875 12.703125 -2.625 13.578125 -3.5 C 14.453125 -4.375 15.179688 -5.394531 15.765625 -6.5625 C 16.347656 -7.726562 16.785156 -9.003906 17.078125 -10.390625 C 17.367188 -11.785156 17.515625 -13.066406 17.515625 -14.234375 L 17.515625 -130.890625 C 17.515625 -132.941406 16.929688 -135.28125 15.765625 -137.90625 C 14.597656 -140.53125 12.914062 -141.988281 10.71875 -142.28125 L 9.625 -142.28125 Z M 32.390625 -136.8125 L 32.390625 -77.703125 L 38.96875 -77.703125 C 44.800781 -77.703125 50.015625 -78.503906 54.609375 -80.109375 C 59.210938 -81.710938 63.046875 -83.828125 66.109375 -86.453125 C 69.171875 -89.085938 71.503906 -92.082031 73.109375 -95.4375 C 74.710938 -98.789062 75.515625 -102.21875 75.515625 -105.71875 C 75.515625 -109.957031 74.820312 -113.9375 73.4375 -117.65625 C 72.050781 -121.375 69.789062 -124.65625 66.65625 -127.5 C 63.519531 -130.34375 59.394531 -132.601562 54.28125 -134.28125 C 49.175781 -135.96875 42.898438 -136.8125 35.453125 -136.8125 Z M 32.390625 -136.8125 "/></g></g></g><g fill="#5ce1e6" fill-opacity="1"><g transform="translate(641.373091, 471.197153)"><g><path d="M 9.84375 -2.1875 L 10.9375 -2.1875 C 12.113281 -2.1875 13.140625 -2.585938 14.015625 -3.390625 C 14.890625 -4.191406 15.65625 -5.175781 16.3125 -6.34375 C 16.96875 -7.507812 17.476562 -8.75 17.84375 -10.0625 C 18.207031 -11.375 18.390625 -12.617188 18.390625 -13.796875 L 18.390625 -130.890625 C 18.390625 -131.910156 18.207031 -133.078125 17.84375 -134.390625 C 17.476562 -135.710938 16.96875 -136.957031 16.3125 -138.125 C 15.65625 -139.289062 14.890625 -140.273438 14.015625 -141.078125 C 13.140625 -141.878906 12.113281 -142.28125 10.9375 -142.28125 L 9.84375 -142.28125 L 9.84375 -144.46875 L 94.125 -144.46875 L 94.125 -124.109375 L 91.9375 -124.109375 C 91.644531 -127.460938 90.328125 -130.414062 87.984375 -132.96875 C 85.648438 -135.53125 82.003906 -136.8125 77.046875 -136.8125 L 33.046875 -136.8125 L 33.046875 -81.421875 L 69.390625 -81.421875 C 72.742188 -81.421875 75.550781 -82.441406 77.8125 -84.484375 C 80.070312 -86.535156 81.203125 -88.945312 81.203125 -91.71875 L 83.390625 -91.71875 L 83.390625 -64.359375 L 81.203125 -64.359375 C 81.203125 -66.984375 80.109375 -69.242188 77.921875 -71.140625 C 75.734375 -73.035156 72.890625 -73.984375 69.390625 -73.984375 L 33.046875 -73.984375 L 33.046875 -7.65625 L 80.984375 -7.65625 C 83.765625 -7.65625 86.175781 -8.3125 88.21875 -9.625 C 90.257812 -10.9375 91.972656 -12.503906 93.359375 -14.328125 C 94.742188 -16.160156 95.765625 -18.132812 96.421875 -20.25 C 97.078125 -22.363281 97.40625 -24.148438 97.40625 -25.609375 L 99.59375 -25.609375 L 99.59375 0 L 9.84375 0 Z M 9.84375 -2.1875 "/></g></g></g><g fill="#5ce1e6" fill-opacity="1"><g transform="translate(747.534354, 471.197153)"><g><path d="M 9.84375 -2.1875 L 10.9375 -2.1875 C 12.113281 -2.1875 13.140625 -2.585938 14.015625 -3.390625 C 14.890625 -4.191406 15.65625 -5.175781 16.3125 -6.34375 C 16.96875 -7.507812 17.476562 -8.75 17.84375 -10.0625 C 18.207031 -11.375 18.390625 -12.617188 18.390625 -13.796875 L 18.390625 -130.890625 C 18.390625 -131.910156 18.207031 -133.078125 17.84375 -134.390625 C 17.476562 -135.710938 16.96875 -136.957031 16.3125 -138.125 C 15.65625 -139.289062 14.890625 -140.273438 14.015625 -141.078125 C 13.140625 -141.878906 12.113281 -142.28125 10.9375 -142.28125 L 9.84375 -142.28125 L 9.84375 -144.46875 L 41.375 -144.46875 L 41.375 -142.28125 L 40.28125 -142.28125 C 39.113281 -142.28125 38.085938 -141.878906 37.203125 -141.078125 C 36.328125 -140.273438 35.597656 -139.289062 35.015625 -138.125 C 34.429688 -136.957031 33.957031 -135.710938 33.59375 -134.390625 C 33.226562 -133.078125 33.046875 -131.910156 33.046875 -130.890625 L 33.046875 -8.09375 L 80.984375 -8.09375 C 83.765625 -8.09375 86.175781 -8.75 88.21875 -10.0625 C 90.257812 -11.375 91.972656 -13.015625 93.359375 -14.984375 C 94.742188 -16.960938 95.765625 -19.082031 96.421875 -21.34375 C 97.078125 -23.601562 97.40625 -25.679688 97.40625 -27.578125 L 99.59375 -27.578125 L 99.59375 0 L 9.84375 0 Z M 9.84375 -2.1875 "/></g></g></g><g fill="#5ce1e6" fill-opacity="1"><g transform="translate(849.317833, 471.197153)"><g><path d="M 93.46875 -2.1875 L 94.5625 -2.1875 C 98.0625 -2.1875 99.8125 -3.789062 99.8125 -7 C 99.8125 -8.164062 99.59375 -9.40625 99.15625 -10.71875 L 79.453125 -63.921875 L 41.15625 -63.921875 L 22.109375 -11.59375 C 21.671875 -10.425781 21.453125 -9.332031 21.453125 -8.3125 C 21.453125 -6.414062 21.960938 -4.921875 22.984375 -3.828125 C 24.003906 -2.734375 25.097656 -2.1875 26.265625 -2.1875 L 27.359375 -2.1875 L 27.359375 0 L 3.0625 0 L 3.0625 -2.1875 L 4.15625 -2.1875 C 6.050781 -2.1875 7.910156 -3.316406 9.734375 -5.578125 C 11.566406 -7.835938 13.066406 -10.503906 14.234375 -13.578125 L 64.359375 -147.09375 L 113.390625 -14.890625 C 114.410156 -11.960938 115.832031 -9.113281 117.65625 -6.34375 C 119.476562 -3.570312 121.847656 -2.1875 124.765625 -2.1875 L 125.859375 -2.1875 L 125.859375 0 L 93.46875 0 Z M 43.34375 -71.359375 L 77.046875 -71.359375 L 60.1875 -117.109375 Z M 43.34375 -71.359375 "/></g></g></g><g fill="#5ce1e6" fill-opacity="1"><g transform="translate(978.46246, 471.197153)"><g><path d="M 9.84375 -2.1875 L 10.9375 -2.1875 C 12.113281 -2.1875 13.140625 -2.585938 14.015625 -3.390625 C 14.890625 -4.191406 15.65625 -5.175781 16.3125 -6.34375 C 16.96875 -7.507812 17.476562 -8.75 17.84375 -10.0625 C 18.207031 -11.375 18.390625 -12.617188 18.390625 -13.796875 L 18.390625 -130.890625 C 18.390625 -131.910156 18.207031 -133.078125 17.84375 -134.390625 C 17.476562 -135.710938 16.96875 -136.957031 16.3125 -138.125 C 15.65625 -139.289062 14.890625 -140.273438 14.015625 -141.078125 C 13.140625 -141.878906 12.113281 -142.28125 10.9375 -142.28125 L 9.84375 -142.28125 L 9.84375 -144.46875 L 41.375 -144.46875 L 41.375 -142.28125 L 40.28125 -142.28125 C 39.113281 -142.28125 38.085938 -141.878906 37.203125 -141.078125 C 36.328125 -140.273438 35.597656 -139.289062 35.015625 -138.125 C 34.429688 -136.957031 33.957031 -135.710938 33.59375 -134.390625 C 33.226562 -133.078125 33.046875 -131.910156 33.046875 -130.890625 L 33.046875 -8.09375 L 80.984375 -8.09375 C 83.765625 -8.09375 86.175781 -8.75 88.21875 -10.0625 C 90.257812 -11.375 91.972656 -13.015625 93.359375 -14.984375 C 94.742188 -16.960938 95.765625 -19.082031 96.421875 -21.34375 C 97.078125 -23.601562 97.40625 -25.679688 97.40625 -27.578125 L 99.59375 -27.578125 L 99.59375 0 L 9.84375 0 Z M 9.84375 -2.1875 "/></g></g></g><g fill="#5ce1e6" fill-opacity="1"><g transform="translate(1080.245939, 471.197153)"><g><path d="M 10.71875 -144.46875 L 42.03125 -144.46875 L 42.03125 -142.28125 L 40.9375 -142.28125 C 39.914062 -142.28125 38.96875 -141.878906 38.09375 -141.078125 C 37.21875 -140.273438 36.484375 -139.328125 35.890625 -138.234375 C 35.304688 -137.140625 34.832031 -135.894531 34.46875 -134.5 C 34.101562 -133.113281 33.921875 -131.910156 33.921875 -130.890625 L 33.921875 -14.234375 C 33.921875 -13.066406 34.066406 -11.785156 34.359375 -10.390625 C 34.648438 -9.003906 35.125 -7.726562 35.78125 -6.5625 C 36.445312 -5.394531 37.179688 -4.375 37.984375 -3.5 C 38.785156 -2.625 39.769531 -2.1875 40.9375 -2.1875 L 42.03125 -2.1875 L 42.03125 0 L 10.71875 0 L 10.71875 -2.1875 L 11.8125 -2.1875 C 12.988281 -2.1875 14.015625 -2.585938 14.890625 -3.390625 C 15.765625 -4.191406 16.53125 -5.210938 17.1875 -6.453125 C 17.84375 -7.691406 18.316406 -9.003906 18.609375 -10.390625 C 18.898438 -11.785156 19.046875 -13.066406 19.046875 -14.234375 L 19.046875 -130.890625 C 19.046875 -131.910156 18.898438 -133.078125 18.609375 -134.390625 C 18.316406 -135.710938 17.84375 -136.957031 17.1875 -138.125 C 16.53125 -139.289062 15.765625 -140.273438 14.890625 -141.078125 C 14.015625 -141.878906 12.988281 -142.28125 11.8125 -142.28125 L 10.71875 -142.28125 Z M 10.71875 -144.46875 "/></g></g></g><g fill="#5ce1e6" fill-opacity="1"><g transform="translate(1133.436011, 471.197153)"><g><path d="M 93.46875 -2.1875 L 94.5625 -2.1875 C 98.0625 -2.1875 99.8125 -3.789062 99.8125 -7 C 99.8125 -8.164062 99.59375 -9.40625 99.15625 -10.71875 L 79.453125 -63.921875 L 41.15625 -63.921875 L 22.109375 -11.59375 C 21.671875 -10.425781 21.453125 -9.332031 21.453125 -8.3125 C 21.453125 -6.414062 21.960938 -4.921875 22.984375 -3.828125 C 24.003906 -2.734375 25.097656 -2.1875 26.265625 -2.1875 L 27.359375 -2.1875 L 27.359375 0 L 3.0625 0 L 3.0625 -2.1875 L 4.15625 -2.1875 C 6.050781 -2.1875 7.910156 -3.316406 9.734375 -5.578125 C 11.566406 -7.835938 13.066406 -10.503906 14.234375 -13.578125 L 64.359375 -147.09375 L 113.390625 -14.890625 C 114.410156 -11.960938 115.832031 -9.113281 117.65625 -6.34375 C 119.476562 -3.570312 121.847656 -2.1875 124.765625 -2.1875 L 125.859375 -2.1875 L 125.859375 0 L 93.46875 0 Z M 43.34375 -71.359375 L 77.046875 -71.359375 L 60.1875 -117.109375 Z M 43.34375 -71.359375 "/></g></g></g><g fill="#5ce1e6" fill-opacity="1"><g transform="translate(1262.580638, 471.197153)"><g><path d="M 32.828125 -2.1875 L 33.921875 -2.1875 L 33.921875 0 L 9.625 0 L 9.625 -2.1875 L 10.71875 -2.1875 C 11.75 -2.1875 12.738281 -2.625 13.6875 -3.5 C 14.632812 -4.375 15.398438 -5.394531 15.984375 -6.5625 C 16.566406 -7.726562 17.039062 -9.003906 17.40625 -10.390625 C 17.769531 -11.785156 17.953125 -13.066406 17.953125 -14.234375 L 17.953125 -130.890625 C 17.953125 -131.910156 17.84375 -133.078125 17.625 -134.390625 C 17.40625 -135.710938 17.003906 -136.957031 16.421875 -138.125 C 15.835938 -139.289062 15.035156 -140.273438 14.015625 -141.078125 C 12.992188 -141.878906 11.75 -142.28125 10.28125 -142.28125 L 9.1875 -142.28125 L 9.1875 -144.46875 L 31.296875 -144.46875 L 110.765625 -19.265625 L 110.765625 -130.890625 C 110.765625 -131.910156 110.582031 -133.078125 110.21875 -134.390625 C 109.851562 -135.710938 109.335938 -136.957031 108.671875 -138.125 C 108.015625 -139.289062 107.25 -140.273438 106.375 -141.078125 C 105.5 -141.878906 104.476562 -142.28125 103.3125 -142.28125 L 102.21875 -142.28125 L 102.21875 -144.46875 L 126.734375 -144.46875 L 126.734375 -142.28125 L 125.640625 -142.28125 C 124.472656 -142.28125 123.453125 -141.878906 122.578125 -141.078125 C 121.703125 -140.273438 120.9375 -139.289062 120.28125 -138.125 C 119.625 -136.957031 119.148438 -135.710938 118.859375 -134.390625 C 118.566406 -133.078125 118.421875 -131.910156 118.421875 -130.890625 L 118.421875 0 L 104.84375 0 L 25.609375 -125.640625 L 25.609375 -14.234375 C 25.609375 -13.066406 25.753906 -11.785156 26.046875 -10.390625 C 26.335938 -9.003906 26.8125 -7.726562 27.46875 -6.5625 C 28.125 -5.394531 28.890625 -4.375 29.765625 -3.5 C 30.640625 -2.625 31.660156 -2.1875 32.828125 -2.1875 Z M 32.828125 -2.1875 "/></g></g></g><path stroke-linecap="butt" transform="matrix(0.393651, 0.000000000000000006, -0.000000000000000006, 0.393651, 38.771045, 491.603491)" fill="none" stroke-linejoin="miter" d="M -0.00384661 1.999573 L 3458.058159 1.999573 " stroke="#5ce1e6" stroke-width="4" stroke-opacity="1" stroke-miterlimit="4"/></svg>