<svg xmlns="http://www.w3.org/2000/svg" xmlns:xlink="http://www.w3.org/1999/xlink" width="500" zoomAndPan="magnify" viewBox="0 0 375 374.999991" height="500" preserveAspectRatio="xMidYMid meet" version="1.0"><defs><g/><clipPath id="0563f97b22"><path d="M 37.402344 109.191406 L 97 109.191406 L 97 144 L 37.402344 144 Z M 37.402344 109.191406 " clip-rule="nonzero"/></clipPath><clipPath id="a0f8171a83"><path d="M 222 145 L 341 145 L 341 295.925781 L 222 295.925781 Z M 222 145 " clip-rule="nonzero"/></clipPath><clipPath id="3d93f801e0"><path d="M 202.601562 110 L 324 110 L 324 234 L 202.601562 234 Z M 202.601562 110 " clip-rule="nonzero"/></clipPath><clipPath id="4ec6566bbb"><path d="M 299 67.425781 L 345 67.425781 L 345 120 L 299 120 Z M 299 67.425781 " clip-rule="nonzero"/></clipPath></defs><g clip-path="url(#0563f97b22)"><path fill="#ffbd59" d="M 96.3125 117.910156 C 93.179688 117.363281 90 116.867188 86.824219 116.410156 C 77.515625 115.003906 68.253906 113.640625 58.949219 112.191406 C 54.679688 111.507812 50.414062 110.871094 46.097656 110.191406 C 44.511719 109.964844 42.875 109.691406 41.285156 109.464844 C 40.652344 109.375 40.015625 109.285156 39.425781 109.238281 C 38.972656 109.191406 38.472656 109.285156 38.0625 109.238281 C 37.835938 109.191406 37.746094 109.511719 37.972656 109.554688 C 37.972656 109.554688 38.019531 109.554688 38.019531 109.554688 C 38.019531 109.601562 38.019531 109.691406 38.109375 109.785156 C 39.472656 111.191406 40.96875 112.460938 42.375 113.777344 C 43.828125 115.09375 45.238281 116.410156 46.691406 117.773438 C 51.730469 122.449219 56.8125 127.082031 61.988281 131.574219 C 63.261719 132.664062 64.53125 133.890625 65.894531 134.890625 C 66.890625 135.660156 68.074219 134.890625 69.070312 134.300781 C 71.296875 135.707031 73.476562 137.25 75.5625 138.882812 C 76.652344 139.746094 77.695312 140.609375 78.742188 141.515625 C 79.242188 141.972656 79.738281 142.425781 80.285156 142.878906 C 80.648438 143.195312 80.964844 143.515625 81.328125 143.742188 C 81.375 143.96875 81.738281 144.015625 81.78125 143.742188 C 82.328125 140.609375 82.917969 137.476562 83.460938 134.34375 C 83.734375 132.753906 84.007812 131.210938 84.28125 129.621094 C 84.417969 128.804688 84.550781 127.988281 84.6875 127.214844 C 84.824219 126.535156 84.960938 125.808594 84.960938 125.128906 C 86.824219 124.449219 88.59375 123.449219 90.316406 122.496094 C 92.359375 121.316406 94.359375 120.042969 96.3125 118.726562 C 96.628906 118.453125 96.628906 117.957031 96.3125 117.910156 Z M 67.527344 134.34375 C 66.847656 134.664062 66.527344 134.480469 65.984375 134.027344 C 65.394531 133.527344 64.804688 133.027344 64.257812 132.527344 C 62.988281 131.4375 61.761719 130.347656 60.492188 129.257812 C 58.039062 127.125 55.585938 124.945312 53.179688 122.722656 C 50.730469 120.496094 48.277344 118.273438 45.871094 116.003906 C 44.691406 114.914062 43.511719 113.824219 42.332031 112.734375 C 41.285156 111.78125 40.289062 110.78125 39.242188 109.875 C 39.289062 109.875 39.335938 109.917969 39.378906 109.917969 C 39.5625 109.964844 39.742188 110.054688 39.925781 110.101562 C 41.878906 111.007812 43.828125 111.960938 45.734375 112.914062 C 52.046875 115.957031 58.3125 118.953125 64.621094 121.949219 C 69.207031 124.128906 73.703125 126.492188 78.421875 128.398438 C 75.109375 130.078125 71.886719 131.894531 68.664062 133.664062 C 68.253906 133.9375 67.890625 134.164062 67.527344 134.34375 Z M 80.464844 142.289062 C 79.96875 141.835938 79.46875 141.382812 78.96875 140.925781 C 77.925781 140.019531 76.878906 139.15625 75.789062 138.292969 C 73.792969 136.75 71.75 135.253906 69.660156 133.890625 C 69.707031 133.84375 69.753906 133.84375 69.796875 133.800781 C 69.886719 133.84375 70.023438 133.890625 70.160156 133.890625 C 70.386719 133.980469 70.613281 134.027344 70.84375 134.070312 C 71.296875 134.207031 71.75 134.300781 72.25 134.433594 C 72.386719 134.480469 72.429688 134.300781 72.292969 134.253906 C 71.839844 134.070312 71.386719 133.890625 70.933594 133.707031 C 70.75 133.617188 70.523438 133.574219 70.296875 133.480469 C 70.613281 133.300781 70.976562 133.117188 71.296875 132.9375 C 71.339844 132.9375 71.386719 132.9375 71.386719 132.980469 C 71.523438 133.027344 71.613281 133.027344 71.75 133.074219 C 71.976562 133.117188 72.25 133.210938 72.476562 133.253906 C 72.976562 133.34375 73.476562 133.480469 74.019531 133.574219 C 74.109375 133.574219 74.109375 133.480469 74.066406 133.4375 C 73.566406 133.253906 73.113281 133.074219 72.613281 132.890625 C 72.386719 132.800781 72.113281 132.710938 71.886719 132.664062 C 72.25 132.484375 72.613281 132.257812 72.976562 132.074219 C 73.15625 132.164062 73.382812 132.164062 73.609375 132.210938 C 73.882812 132.257812 74.15625 132.300781 74.382812 132.390625 C 74.929688 132.484375 75.472656 132.574219 76.015625 132.664062 C 76.152344 132.664062 76.199219 132.527344 76.0625 132.484375 C 75.519531 132.347656 75.019531 132.164062 74.472656 132.074219 C 74.203125 132.027344 73.929688 131.9375 73.65625 131.894531 C 73.609375 131.894531 73.519531 131.847656 73.476562 131.847656 C 73.839844 131.664062 74.203125 131.4375 74.519531 131.257812 C 74.699219 131.4375 75.019531 131.4375 75.246094 131.53125 C 75.5625 131.621094 75.835938 131.664062 76.152344 131.710938 C 76.472656 131.757812 76.742188 131.847656 77.0625 131.894531 C 77.332031 131.9375 77.652344 132.027344 77.925781 132.027344 C 78.015625 132.027344 78.015625 131.9375 77.96875 131.894531 C 77.695312 131.757812 77.425781 131.664062 77.152344 131.574219 C 76.835938 131.484375 76.5625 131.394531 76.246094 131.300781 C 75.925781 131.210938 75.652344 131.121094 75.335938 131.03125 C 75.246094 130.984375 75.15625 130.984375 75.019531 130.9375 C 75.382812 130.757812 75.699219 130.53125 76.0625 130.347656 C 76.152344 130.394531 76.289062 130.441406 76.425781 130.441406 C 76.652344 130.53125 76.925781 130.578125 77.152344 130.621094 C 77.652344 130.757812 78.152344 130.894531 78.695312 130.984375 C 78.832031 131.03125 78.878906 130.847656 78.742188 130.804688 C 78.242188 130.621094 77.789062 130.441406 77.289062 130.304688 C 77.0625 130.214844 76.789062 130.121094 76.5625 130.078125 C 76.5625 130.078125 76.5625 130.078125 76.515625 130.078125 C 77.199219 129.667969 77.925781 129.257812 78.605469 128.851562 C 78.695312 129.851562 79.105469 130.847656 79.332031 131.847656 C 79.648438 133.210938 79.96875 134.570312 80.238281 135.933594 C 80.738281 138.339844 81.238281 140.792969 81.285156 143.242188 C 81.054688 142.878906 80.738281 142.5625 80.464844 142.289062 Z M 90.089844 121.679688 C 88.140625 122.8125 86.097656 123.855469 84.1875 125.082031 C 84.097656 125.128906 84.144531 125.265625 84.28125 125.265625 C 84.417969 125.21875 84.597656 125.171875 84.734375 125.082031 C 84.597656 125.535156 84.507812 126.035156 84.417969 126.535156 C 84.144531 126.355469 83.734375 126.261719 83.417969 126.128906 C 82.917969 125.945312 82.375 125.71875 81.875 125.535156 C 80.828125 125.128906 79.738281 124.71875 78.695312 124.355469 C 76.5625 123.585938 74.472656 122.769531 72.292969 122.042969 C 72.203125 121.996094 72.160156 122.132812 72.25 122.175781 C 74.246094 123.128906 76.289062 123.855469 78.378906 124.628906 C 79.46875 125.039062 80.558594 125.445312 81.648438 125.855469 C 82.144531 126.035156 82.601562 126.21875 83.097656 126.398438 C 83.460938 126.535156 83.917969 126.808594 84.324219 126.851562 C 84.28125 127.035156 84.28125 127.214844 84.234375 127.351562 C 84.1875 127.488281 84.1875 127.625 84.144531 127.714844 C 83.917969 127.578125 83.644531 127.488281 83.371094 127.398438 C 82.917969 127.214844 82.464844 127.082031 82.054688 126.898438 C 81.148438 126.582031 80.285156 126.21875 79.375 125.898438 C 77.605469 125.21875 75.835938 124.492188 73.972656 123.992188 C 73.929688 123.992188 73.929688 124.039062 73.929688 124.039062 C 75.5625 124.855469 77.332031 125.445312 79.058594 126.082031 C 79.96875 126.398438 80.828125 126.761719 81.738281 127.082031 C 82.191406 127.261719 82.644531 127.398438 83.054688 127.578125 C 83.371094 127.714844 83.734375 127.898438 84.054688 127.898438 C 84.007812 128.171875 83.960938 128.441406 83.917969 128.714844 C 83.734375 128.625 83.507812 128.535156 83.28125 128.488281 C 82.871094 128.351562 82.507812 128.214844 82.101562 128.035156 C 81.328125 127.761719 80.558594 127.445312 79.785156 127.171875 C 78.242188 126.582031 76.699219 125.945312 75.0625 125.535156 C 75.0625 125.535156 75.019531 125.535156 75.0625 125.582031 C 76.472656 126.308594 78.058594 126.808594 79.558594 127.351562 C 80.332031 127.625 81.101562 127.941406 81.875 128.214844 C 82.28125 128.351562 82.644531 128.488281 83.054688 128.667969 C 83.328125 128.761719 83.597656 128.894531 83.871094 128.941406 C 83.824219 129.167969 83.78125 129.351562 83.734375 129.578125 C 83.734375 129.667969 83.691406 129.714844 83.691406 129.804688 C 82.507812 129.304688 81.328125 128.851562 80.101562 128.441406 C 80.058594 128.441406 80.011719 128.488281 80.058594 128.535156 C 81.238281 129.125 82.417969 129.621094 83.597656 130.121094 C 83.554688 130.394531 83.507812 130.710938 83.460938 130.984375 C 83.328125 130.9375 83.191406 130.894531 83.054688 130.804688 C 82.828125 130.710938 82.601562 130.621094 82.375 130.53125 C 81.917969 130.347656 81.464844 130.167969 81.011719 129.984375 C 80.921875 129.941406 80.875 130.078125 80.964844 130.121094 C 81.417969 130.347656 81.828125 130.578125 82.28125 130.757812 C 82.507812 130.847656 82.738281 130.984375 82.964844 131.074219 C 83.097656 131.167969 83.28125 131.210938 83.417969 131.300781 C 83.371094 131.574219 83.328125 131.894531 83.28125 132.164062 C 83.191406 132.074219 83.054688 132.027344 82.917969 131.984375 C 82.738281 131.9375 82.601562 131.847656 82.417969 131.800781 C 82.238281 131.757812 82.101562 131.664062 81.917969 131.621094 C 81.738281 131.574219 81.554688 131.484375 81.375 131.4375 C 81.328125 131.4375 81.285156 131.484375 81.328125 131.53125 C 81.464844 131.621094 81.648438 131.710938 81.828125 131.800781 C 81.964844 131.894531 82.144531 131.9375 82.28125 132.027344 C 82.417969 132.121094 82.601562 132.164062 82.738281 132.257812 C 82.871094 132.300781 83.007812 132.390625 83.144531 132.390625 C 83.097656 132.710938 83.054688 132.980469 82.964844 133.300781 C 82.464844 133.027344 81.964844 132.800781 81.417969 132.527344 C 81.328125 132.484375 81.238281 132.621094 81.328125 132.664062 C 81.828125 132.9375 82.375 133.253906 82.917969 133.527344 C 82.871094 133.753906 82.828125 133.9375 82.78125 134.164062 C 82.78125 134.253906 82.738281 134.34375 82.738281 134.433594 C 82.691406 134.433594 82.691406 134.390625 82.644531 134.390625 C 82.507812 134.34375 82.417969 134.253906 82.28125 134.207031 C 82.054688 134.070312 81.78125 133.980469 81.554688 133.84375 C 81.511719 133.800781 81.417969 133.890625 81.511719 133.9375 C 81.738281 134.117188 81.964844 134.253906 82.191406 134.433594 C 82.28125 134.527344 82.417969 134.570312 82.507812 134.664062 C 82.554688 134.707031 82.644531 134.753906 82.691406 134.753906 C 82.644531 135.070312 82.554688 135.386719 82.507812 135.707031 C 82.375 135.617188 82.238281 135.570312 82.101562 135.480469 C 82.011719 135.433594 81.875 135.386719 81.78125 135.34375 C 81.691406 135.296875 81.554688 135.253906 81.464844 135.207031 C 81.417969 135.207031 81.328125 135.296875 81.417969 135.296875 C 81.511719 135.386719 81.601562 135.433594 81.691406 135.523438 C 81.78125 135.570312 81.875 135.660156 81.964844 135.707031 C 82.144531 135.796875 82.28125 135.886719 82.464844 135.980469 C 82.417969 136.296875 82.328125 136.613281 82.28125 136.933594 C 82.28125 136.933594 82.238281 136.933594 82.238281 136.886719 C 82.191406 136.839844 82.101562 136.796875 82.054688 136.75 C 82.011719 136.707031 81.917969 136.660156 81.828125 136.613281 C 81.78125 136.613281 81.78125 136.570312 81.738281 136.570312 C 81.738281 136.570312 81.691406 136.570312 81.691406 136.570312 C 81.691406 136.570312 81.691406 136.570312 81.648438 136.570312 C 81.648438 136.570312 81.601562 136.570312 81.601562 136.613281 C 81.601562 136.613281 81.601562 136.660156 81.601562 136.660156 C 81.601562 136.660156 81.601562 136.707031 81.648438 136.707031 C 81.648438 136.75 81.691406 136.75 81.691406 136.796875 C 81.738281 136.839844 81.78125 136.886719 81.828125 136.976562 C 81.875 137.023438 81.917969 137.066406 82.011719 137.113281 C 82.054688 137.160156 82.101562 137.203125 82.191406 137.25 C 81.964844 138.613281 81.691406 139.972656 81.464844 141.335938 C 81.285156 139.472656 80.964844 137.566406 80.601562 135.75 C 80.332031 134.34375 80.011719 132.9375 79.648438 131.53125 C 79.375 130.484375 79.195312 129.304688 78.652344 128.398438 C 78.695312 128.261719 78.558594 128.078125 78.378906 128.171875 C 76.378906 127.125 74.335938 126.128906 72.292969 125.128906 C 66.03125 122.085938 59.71875 119.046875 53.453125 116.003906 C 50.09375 114.367188 46.734375 112.734375 43.328125 111.144531 C 44.191406 111.417969 45.101562 111.734375 45.964844 112.007812 C 52.820312 114.234375 59.671875 116.503906 66.484375 118.773438 C 71.703125 120.496094 76.878906 122.449219 82.144531 123.992188 C 82.144531 123.992188 82.191406 123.949219 82.144531 123.949219 C 79.875 122.859375 77.425781 122.042969 75.0625 121.222656 C 68.300781 118.863281 61.488281 116.546875 54.679688 114.234375 C 51.5 113.144531 48.277344 112.054688 45.101562 111.007812 C 44.648438 110.875 44.191406 110.691406 43.738281 110.554688 C 44.875 110.738281 45.964844 110.917969 47.097656 111.101562 C 56.3125 112.507812 65.574219 113.824219 74.835938 115.230469 C 81.511719 116.230469 88.230469 117.183594 94.902344 118.320312 C 93.496094 119.589844 91.816406 120.679688 90.089844 121.679688 Z M 90.089844 121.679688 " fill-opacity="1" fill-rule="nonzero"/></g><path fill="#ffbd59" d="M 64.804688 119.179688 C 64.078125 118.863281 63.394531 118.589844 62.671875 118.273438 C 62.308594 118.136719 61.988281 118 61.625 117.863281 C 61.351562 117.726562 61.035156 117.546875 60.71875 117.546875 C 60.671875 117.546875 60.628906 117.636719 60.671875 117.683594 C 60.898438 117.910156 61.21875 118 61.488281 118.089844 C 61.851562 118.226562 62.171875 118.363281 62.535156 118.5 C 63.214844 118.773438 63.894531 119.042969 64.621094 119.316406 C 66.03125 119.863281 67.4375 120.453125 68.84375 120.996094 C 68.890625 121.042969 68.933594 120.90625 68.890625 120.90625 C 67.527344 120.316406 66.164062 119.726562 64.804688 119.179688 Z M 64.804688 119.179688 " fill-opacity="1" fill-rule="nonzero"/><path fill="#ffbd59" d="M 65.394531 120.542969 C 64.847656 120.316406 64.304688 120.089844 63.757812 119.816406 C 63.488281 119.726562 63.214844 119.589844 62.988281 119.5 C 62.761719 119.40625 62.578125 119.273438 62.351562 119.273438 C 62.261719 119.273438 62.214844 119.40625 62.261719 119.453125 C 62.441406 119.636719 62.761719 119.726562 62.988281 119.816406 C 63.261719 119.90625 63.53125 120.042969 63.757812 120.132812 C 64.304688 120.363281 64.804688 120.589844 65.347656 120.816406 C 66.394531 121.269531 67.4375 121.679688 68.480469 122.085938 C 68.570312 122.132812 68.664062 121.949219 68.570312 121.90625 C 67.480469 121.449219 66.4375 120.996094 65.394531 120.542969 Z M 65.394531 120.542969 " fill-opacity="1" fill-rule="nonzero"/><path fill="#ffbd59" d="M 70.613281 122.722656 C 70.480469 122.675781 70.296875 122.585938 70.160156 122.539062 C 70.023438 122.496094 69.886719 122.40625 69.753906 122.359375 C 69.660156 122.359375 69.570312 122.449219 69.660156 122.496094 C 69.796875 122.585938 69.933594 122.632812 70.070312 122.722656 C 70.207031 122.769531 70.386719 122.859375 70.523438 122.902344 C 70.84375 123.039062 71.113281 123.175781 71.433594 123.3125 C 72.023438 123.585938 72.65625 123.855469 73.246094 124.039062 C 73.292969 124.039062 73.292969 123.992188 73.292969 123.992188 C 72.75 123.675781 72.113281 123.402344 71.523438 123.128906 C 71.25 122.996094 70.933594 122.859375 70.613281 122.722656 Z M 70.613281 122.722656 " fill-opacity="1" fill-rule="nonzero"/><path fill="#ffbd59" d="M 56.085938 116.140625 C 55.632812 115.914062 55.132812 115.730469 54.679688 115.503906 C 54.40625 115.414062 54.179688 115.277344 53.90625 115.1875 C 53.726562 115.09375 53.589844 115.003906 53.363281 115.050781 C 53.316406 115.050781 53.316406 115.09375 53.316406 115.140625 C 53.453125 115.320312 53.679688 115.414062 53.90625 115.503906 C 54.136719 115.59375 54.363281 115.730469 54.632812 115.820312 C 55.089844 116.046875 55.585938 116.230469 56.042969 116.457031 C 56.996094 116.867188 57.949219 117.273438 58.949219 117.636719 C 58.992188 117.636719 59.039062 117.59375 58.992188 117.546875 C 58.039062 117 57.039062 116.546875 56.085938 116.140625 Z M 56.085938 116.140625 " fill-opacity="1" fill-rule="nonzero"/><path fill="#ffbd59" d="M 258.25 124.765625 C 257.75 124.039062 257.113281 123.449219 256.34375 123.085938 C 255.660156 122.8125 254.84375 122.675781 254.164062 122.949219 C 253.4375 123.222656 252.800781 123.722656 252.300781 124.3125 C 251.304688 125.582031 250.984375 127.171875 251.800781 128.625 C 252.664062 130.167969 254.4375 130.894531 256.160156 130.53125 C 256.976562 130.347656 257.703125 129.894531 258.203125 129.257812 C 258.65625 128.667969 258.976562 127.714844 258.65625 126.988281 C 258.65625 126.988281 258.613281 126.945312 258.613281 126.945312 C 258.703125 126.625 258.792969 126.308594 258.792969 125.992188 C 258.703125 125.535156 258.523438 125.171875 258.25 124.765625 Z M 257.25 129.03125 C 256.707031 129.53125 255.980469 129.757812 255.253906 129.757812 C 253.9375 129.757812 252.757812 128.894531 252.347656 127.625 C 251.984375 126.445312 252.574219 125.265625 253.4375 124.449219 C 253.84375 124.085938 254.390625 123.765625 254.933594 123.722656 C 255.480469 123.722656 256.023438 123.902344 256.433594 124.265625 C 256.886719 124.628906 257.25 125.128906 257.523438 125.671875 C 257.660156 125.945312 257.796875 126.261719 257.976562 126.492188 C 258.113281 126.625 258.203125 126.761719 258.292969 126.945312 C 258.292969 126.945312 258.292969 126.945312 258.292969 126.988281 C 258.066406 127.714844 257.839844 128.488281 257.25 129.03125 Z M 257.25 129.03125 " fill-opacity="1" fill-rule="nonzero"/><path fill="#ffbd59" d="M 248.578125 146.058594 C 248.625 145.964844 248.625 145.875 248.671875 145.785156 C 248.625 145.875 248.578125 145.964844 248.578125 146.058594 Z M 248.578125 146.058594 " fill-opacity="1" fill-rule="nonzero"/><path fill="#ffbd59" d="M 262.246094 119.40625 C 258.75 115.914062 252.847656 115.683594 249.167969 119.042969 C 245.21875 122.632812 245.128906 128.214844 245.945312 133.074219 C 246.308594 135.386719 246.898438 137.613281 247.445312 139.882812 C 247.714844 141.0625 247.988281 142.199219 248.171875 143.378906 C 248.351562 144.332031 248.671875 145.285156 248.761719 146.238281 C 248.488281 146.464844 248.851562 146.917969 249.125 146.738281 C 253.980469 143.015625 258.566406 138.613281 262.015625 133.527344 C 263.5625 131.257812 264.785156 128.625 264.832031 125.855469 C 264.921875 123.402344 263.96875 121.085938 262.246094 119.40625 Z M 259.382812 135.117188 C 256.34375 138.976562 252.847656 142.425781 249.261719 145.785156 C 249.351562 145.011719 249.394531 144.242188 249.304688 143.425781 C 249.167969 142.289062 248.898438 141.109375 248.625 139.972656 C 248.078125 137.660156 247.488281 135.386719 247.082031 133.027344 C 246.308594 128.398438 246.308594 122.996094 250.167969 119.679688 C 253.753906 116.59375 259.609375 117.457031 262.289062 121.316406 C 265.558594 125.992188 262.378906 131.300781 259.382812 135.117188 Z M 259.382812 135.117188 " fill-opacity="1" fill-rule="nonzero"/><path fill="#ffbd59" d="M 247.261719 146.375 C 245.855469 145.238281 244.449219 144.105469 242.996094 142.96875 C 237.136719 138.429688 230.964844 134.164062 224.109375 131.210938 C 216.753906 128.035156 208.898438 126.761719 200.910156 127.261719 C 183.839844 128.351562 168.132812 136.523438 151.0625 137.703125 C 147.65625 137.929688 144.160156 137.886719 140.710938 137.429688 C 142.117188 133.074219 140.800781 128.171875 137.667969 124.539062 C 135.535156 122.085938 132.722656 120.179688 129.542969 119.40625 C 126.863281 118.726562 123.503906 118.589844 121.1875 120.363281 C 118.511719 122.40625 118.917969 125.765625 120.554688 128.351562 C 122.460938 131.300781 125.636719 133.34375 128.769531 134.84375 C 132.175781 136.476562 135.851562 137.523438 139.621094 138.066406 C 138.441406 140.699219 136.171875 142.742188 133.71875 144.195312 C 126.683594 148.28125 118.101562 148.007812 110.339844 146.828125 C 101.714844 145.46875 93.179688 142.742188 84.371094 143.015625 C 84.144531 143.015625 84.144531 143.378906 84.371094 143.378906 C 86.730469 143.515625 89.046875 143.832031 91.363281 144.152344 C 100.351562 145.511719 109.203125 148.238281 118.328125 148.464844 C 125.457031 148.644531 133.945312 147.011719 138.714844 141.152344 C 139.484375 140.199219 140.03125 139.246094 140.4375 138.203125 C 143.796875 138.65625 147.203125 138.703125 150.515625 138.519531 C 168.359375 137.476562 184.703125 128.578125 202.542969 127.808594 C 211.214844 127.445312 219.523438 129.351562 227.242188 133.210938 C 234.371094 136.75 240.816406 141.5625 247.035156 146.511719 C 247.21875 146.648438 247.351562 146.464844 247.261719 146.375 Z M 129.589844 134.433594 C 126.410156 132.980469 123.097656 130.984375 121.1875 127.988281 C 120.28125 126.625 119.601562 124.902344 120.054688 123.222656 C 120.464844 121.722656 121.734375 120.632812 123.1875 120.132812 C 126.046875 119.179688 129.453125 119.863281 132.085938 121.179688 C 135.035156 122.632812 137.488281 125.128906 139.03125 128.035156 C 140.4375 130.757812 140.984375 133.980469 140.074219 136.976562 C 140.03125 137.113281 139.984375 137.25 139.9375 137.386719 C 136.351562 136.886719 132.855469 135.933594 129.589844 134.433594 Z M 129.589844 134.433594 " fill-opacity="1" fill-rule="nonzero"/><g clip-path="url(#a0f8171a83)"><path fill="#ff914d" d="M 313.652344 193.085938 C 312.132812 196.457031 310.5 199.652344 308.75 202.667969 C 307.042969 211.308594 302.589844 220.511719 294.542969 229.757812 C 276.414062 250.570312 243.5625 251.289062 222.472656 242.445312 C 240.703125 271.832031 271.476562 295.914062 271.476562 295.914062 C 271.476562 295.914062 340.324219 242.039062 340.324219 186.957031 C 340.324219 171.179688 335.019531 156.648438 326.09375 145.042969 C 324.003906 163.332031 319.824219 179.476562 313.652344 193.085938 Z M 313.652344 193.085938 " fill-opacity="1" fill-rule="nonzero"/></g><g clip-path="url(#3d93f801e0)"><path fill="#ff914d" d="M 255.492188 233.289062 C 266.320312 232.996094 276.445312 229.429688 285.386719 222.796875 C 290.171875 219.253906 294.621094 214.832031 298.660156 209.554688 C 302.695312 204.273438 306.320312 198.144531 309.460938 191.183594 C 315.726562 177.371094 320.078125 160.289062 321.976562 140.167969 C 322.832031 131.015625 323.1875 121.230469 322.980469 110.832031 C 320.882812 118.839844 318.570312 126.8125 316.042969 134.488281 C 311.761719 147.425781 306.824219 159.5625 301.152344 169.726562 C 292.378906 185.480469 281.832031 196.507812 269.234375 198.535156 C 237.460938 203.628906 235.5 156.34375 269.445312 154.445312 C 279.828125 153.871094 290.28125 158.320312 297.921875 166.042969 C 302.757812 157.105469 307.375 146.011719 311.671875 133.039062 C 311.84375 132.511719 312.019531 131.980469 312.191406 131.445312 C 300.789062 123.066406 286.710938 118.121094 271.476562 118.121094 C 233.453125 118.121094 202.632812 148.941406 202.632812 186.957031 C 202.632812 187.453125 202.632812 190.007812 202.78125 191.355469 C 205.957031 220.296875 228.550781 234.046875 255.492188 233.289062 Z M 255.492188 233.289062 " fill-opacity="1" fill-rule="nonzero"/></g><g clip-path="url(#4ec6566bbb)"><path fill="#ff914d" d="M 323.621094 91.800781 L 329.066406 118.5 L 344.808594 119.410156 L 325.03125 67.425781 L 299.398438 116.785156 L 315.136719 117.695312 Z M 323.621094 91.800781 " fill-opacity="1" fill-rule="nonzero"/></g><g fill="#5ce1e6" fill-opacity="1"><g transform="translate(88.706626, 178.13416)"><g><path d="M 18.03125 -15.71875 C 18.03125 -14.664062 18.070312 -13.203125 18.15625 -11.328125 C 18.238281 -9.453125 18.5 -7.492188 18.9375 -5.453125 C 19.382812 -3.421875 20.128906 -1.601562 21.171875 0 L 11.75 0 C 9.976562 0 8.484375 -0.617188 7.265625 -1.859375 C 6.054688 -3.097656 5.453125 -4.570312 5.453125 -6.28125 L 5.453125 -47.15625 C 5.453125 -48.195312 5.410156 -49.65625 5.328125 -51.53125 C 5.253906 -53.40625 4.992188 -55.363281 4.546875 -57.40625 C 4.109375 -59.445312 3.363281 -61.238281 2.3125 -62.78125 L 11.75 -62.78125 C 13.457031 -62.78125 14.929688 -62.171875 16.171875 -60.953125 C 17.410156 -59.742188 18.03125 -58.257812 18.03125 -56.5 Z M 18.03125 -15.71875 "/></g></g></g><g fill="#5ce1e6" fill-opacity="1"><g transform="translate(114.675001, 178.13416)"><g><path d="M 45.171875 -11.75 C 45.171875 -10.207031 45.25 -8.617188 45.40625 -6.984375 C 45.570312 -5.359375 45.78125 -3.910156 46.03125 -2.640625 C 46.28125 -1.378906 46.515625 -0.5 46.734375 0 L 39.703125 0 C 37.941406 0 36.453125 -0.601562 35.234375 -1.8125 C 34.023438 -3.03125 33.421875 -4.519531 33.421875 -6.28125 L 33.5 -26.296875 C 33.5 -29.890625 33.039062 -32.441406 32.125 -33.953125 C 31.21875 -35.472656 29.960938 -36.191406 28.359375 -36.109375 C 26.765625 -36.023438 24.921875 -35.28125 22.828125 -33.875 C 20.734375 -32.46875 18.5 -30.578125 16.125 -28.203125 L 16.125 -11.75 C 16.125 -10.207031 16.207031 -8.617188 16.375 -6.984375 C 16.539062 -5.359375 16.75 -3.910156 17 -2.640625 C 17.25 -1.378906 17.484375 -0.5 17.703125 0 L 10.671875 0 C 8.910156 0 7.421875 -0.601562 6.203125 -1.8125 C 4.992188 -3.03125 4.390625 -4.519531 4.390625 -6.28125 L 4.390625 -32.171875 C 4.390625 -33.722656 4.304688 -35.3125 4.140625 -36.9375 C 3.972656 -38.5625 3.773438 -40.003906 3.546875 -41.265625 C 3.328125 -42.535156 3.082031 -43.421875 2.8125 -43.921875 L 9.84375 -43.921875 C 11.601562 -43.921875 13.085938 -43.3125 14.296875 -42.09375 C 15.515625 -40.882812 16.125 -39.398438 16.125 -37.640625 L 16.125 -32.921875 C 19 -35.566406 21.453125 -37.757812 23.484375 -39.5 C 25.523438 -41.238281 27.425781 -42.546875 29.1875 -43.421875 C 30.957031 -44.304688 32.890625 -44.75 34.984375 -44.75 C 37.742188 -44.75 39.835938 -44.265625 41.265625 -43.296875 C 42.703125 -42.335938 43.679688 -40.988281 44.203125 -39.25 C 44.734375 -37.507812 45.023438 -35.441406 45.078125 -33.046875 C 45.140625 -30.648438 45.171875 -28.015625 45.171875 -25.140625 Z M 45.171875 -11.75 "/></g></g></g><g fill="#5ce1e6" fill-opacity="1"><g transform="translate(166.694022, 178.13416)"><g><path d="M 26.46875 -64.359375 C 27.019531 -64.359375 27.929688 -64.316406 29.203125 -64.234375 C 30.472656 -64.148438 31.90625 -63.882812 33.5 -63.4375 C 35.101562 -63 36.703125 -62.257812 38.296875 -61.21875 L 34 -54.265625 C 33.445312 -53.429688 32.671875 -53.097656 31.671875 -53.265625 C 30.679688 -53.429688 29.773438 -53.789062 28.953125 -54.34375 C 27.242188 -55.5625 25.835938 -56.390625 24.734375 -56.828125 C 22.578125 -57.546875 21.28125 -57.144531 20.84375 -55.625 C 20.40625 -54.113281 20.1875 -51.894531 20.1875 -48.96875 L 20.1875 -43.921875 L 31.109375 -43.921875 L 29.859375 -40.859375 C 29.523438 -39.867188 28.929688 -39.097656 28.078125 -38.546875 C 27.222656 -37.992188 26.273438 -37.71875 25.234375 -37.71875 L 23.734375 -37.71875 L 23.734375 -37.640625 L 20.09375 -37.640625 L 20.09375 -11.75 C 20.09375 -10.207031 20.175781 -8.617188 20.34375 -6.984375 C 20.507812 -5.359375 20.71875 -3.910156 20.96875 -2.640625 C 21.21875 -1.378906 21.453125 -0.5 21.671875 0 L 14.390625 0 C 12.734375 0 11.3125 -0.59375 10.125 -1.78125 C 8.945312 -2.96875 8.359375 -4.382812 8.359375 -6.03125 L 8.359375 -37.640625 L -1.40625 -37.640625 L -0.171875 -40.78125 C 0.210938 -41.71875 0.832031 -42.472656 1.6875 -43.046875 C 2.550781 -43.628906 3.476562 -43.921875 4.46875 -43.921875 L 8.6875 -43.921875 C 9.238281 -50.316406 10.90625 -55.320312 13.6875 -58.9375 C 16.476562 -62.550781 20.738281 -64.359375 26.46875 -64.359375 Z M 26.46875 -64.359375 "/></g></g></g><g fill="#5ce1e6" fill-opacity="1"><g transform="translate(201.676729, 178.13416)"><g><path d="M 22.75 -44.75 C 27.707031 -44.75 31.742188 -43.6875 34.859375 -41.5625 C 37.984375 -39.4375 40.273438 -36.648438 41.734375 -33.203125 C 43.191406 -29.765625 43.921875 -26.03125 43.921875 -22 C 43.921875 -17.914062 43.191406 -14.148438 41.734375 -10.703125 C 40.273438 -7.265625 37.984375 -4.484375 34.859375 -2.359375 C 31.742188 -0.234375 27.707031 0.828125 22.75 0.828125 C 17.78125 0.828125 13.738281 -0.234375 10.625 -2.359375 C 7.507812 -4.484375 5.222656 -7.265625 3.765625 -10.703125 C 2.304688 -14.148438 1.578125 -17.914062 1.578125 -22 C 1.578125 -26.03125 2.304688 -29.765625 3.765625 -33.203125 C 5.222656 -36.648438 7.507812 -39.4375 10.625 -41.5625 C 13.738281 -43.6875 17.78125 -44.75 22.75 -44.75 Z M 22.75 -3.890625 C 25.113281 -3.890625 27.015625 -5.335938 28.453125 -8.234375 C 29.890625 -11.128906 30.609375 -15.71875 30.609375 -22 C 30.609375 -28.226562 29.890625 -32.789062 28.453125 -35.6875 C 27.015625 -38.582031 25.113281 -40.03125 22.75 -40.03125 C 20.375 -40.03125 18.46875 -38.582031 17.03125 -35.6875 C 15.601562 -32.789062 14.890625 -28.226562 14.890625 -22 C 14.890625 -15.71875 15.601562 -11.128906 17.03125 -8.234375 C 18.46875 -5.335938 20.375 -3.890625 22.75 -3.890625 Z M 22.75 -3.890625 "/></g></g></g><g fill="#0097b2" fill-opacity="1"><g transform="translate(49.315658, 222.98005)"><g><path d="M 19.078125 -44.6875 C 20.765625 -44.6875 22.566406 -44.507812 24.484375 -44.15625 C 26.410156 -43.800781 28.238281 -43.140625 29.96875 -42.171875 C 31.695312 -41.210938 33.109375 -39.859375 34.203125 -38.109375 C 35.304688 -36.367188 35.859375 -34.109375 35.859375 -31.328125 C 35.859375 -28.535156 35.328125 -26.253906 34.265625 -24.484375 C 33.203125 -22.722656 31.835938 -21.359375 30.171875 -20.390625 C 28.503906 -19.429688 26.71875 -18.773438 24.8125 -18.421875 C 22.90625 -18.066406 21.128906 -17.890625 19.484375 -17.890625 L 14.1875 -17.890625 C 14.8125 -19.265625 15.289062 -20.265625 15.625 -20.890625 C 15.957031 -21.523438 16.289062 -21.929688 16.625 -22.109375 C 16.957031 -22.285156 17.421875 -22.375 18.015625 -22.375 L 19.484375 -22.375 C 22.273438 -22.375 24.207031 -23.164062 25.28125 -24.75 C 26.363281 -26.34375 26.90625 -28.535156 26.90625 -31.328125 C 26.90625 -34.109375 26.296875 -36.285156 25.078125 -37.859375 C 23.859375 -39.429688 21.859375 -40.21875 19.078125 -40.21875 L 12.828125 -40.21875 L 12.828125 -11.1875 C 12.828125 -10.4375 12.859375 -9.394531 12.921875 -8.0625 C 12.984375 -6.726562 13.171875 -5.332031 13.484375 -3.875 C 13.796875 -2.425781 14.328125 -1.132812 15.078125 0 L 8.359375 0 C 7.097656 0 6.035156 -0.441406 5.171875 -1.328125 C 4.316406 -2.210938 3.890625 -3.257812 3.890625 -4.46875 L 3.890625 -33.5625 C 3.890625 -34.300781 3.859375 -35.335938 3.796875 -36.671875 C 3.734375 -38.015625 3.546875 -39.410156 3.234375 -40.859375 C 2.921875 -42.304688 2.394531 -43.582031 1.65625 -44.6875 Z M 19.078125 -44.6875 "/></g></g></g><g fill="#0097b2" fill-opacity="1"><g transform="translate(87.752509, 222.98005)"><g><path d="M 17.078125 -5.0625 C 18.921875 -5.0625 20.566406 -5.5625 22.015625 -6.5625 C 23.472656 -7.5625 24.414062 -8.828125 24.84375 -10.359375 C 25.625 -9.535156 26.023438 -8.484375 26.046875 -7.203125 C 26.066406 -5.929688 25.609375 -4.671875 24.671875 -3.421875 C 23.847656 -2.273438 22.609375 -1.316406 20.953125 -0.546875 C 19.304688 0.210938 17.503906 0.59375 15.546875 0.59375 C 12.328125 0.59375 9.644531 -0.160156 7.5 -1.671875 C 5.363281 -3.179688 3.765625 -5.160156 2.703125 -7.609375 C 1.648438 -10.066406 1.125 -12.75 1.125 -15.65625 C 1.125 -18.519531 1.660156 -21.175781 2.734375 -23.625 C 3.816406 -26.082031 5.4375 -28.066406 7.59375 -29.578125 C 9.75 -31.085938 12.4375 -31.84375 15.65625 -31.84375 C 19.070312 -31.84375 21.820312 -30.953125 23.90625 -29.171875 C 25.988281 -27.390625 27.03125 -25.082031 27.03125 -22.25 C 27.03125 -20.25 26.554688 -18.570312 25.609375 -17.21875 C 24.671875 -15.863281 23.460938 -14.773438 21.984375 -13.953125 C 20.515625 -13.128906 18.984375 -12.5 17.390625 -12.0625 C 15.804688 -11.632812 14.328125 -11.332031 12.953125 -11.15625 C 11.578125 -10.976562 10.554688 -10.851562 9.890625 -10.78125 C 10.554688 -8.894531 11.554688 -7.46875 12.890625 -6.5 C 14.222656 -5.539062 15.617188 -5.0625 17.078125 -5.0625 Z M 9.0625 -15.65625 C 9.0625 -14.632812 9.160156 -13.675781 9.359375 -12.78125 C 13.015625 -13.914062 15.613281 -15.328125 17.15625 -17.015625 C 18.707031 -18.703125 19.484375 -20.46875 19.484375 -22.3125 C 19.484375 -24.269531 19.140625 -25.691406 18.453125 -26.578125 C 17.765625 -27.460938 16.734375 -27.90625 15.359375 -27.90625 C 14.335938 -27.90625 13.347656 -27.503906 12.390625 -26.703125 C 11.429688 -25.898438 10.632812 -24.59375 10 -22.78125 C 9.375 -20.976562 9.0625 -18.601562 9.0625 -15.65625 Z M 9.0625 -15.65625 "/></g></g></g><g fill="#0097b2" fill-opacity="1"><g transform="translate(117.654447, 222.98005)"><g><path d="M 11.25 -8.359375 C 11.25 -7.265625 11.304688 -6.132812 11.421875 -4.96875 C 11.535156 -3.8125 11.679688 -2.78125 11.859375 -1.875 C 12.035156 -0.976562 12.203125 -0.351562 12.359375 0 L 7.359375 0 C 6.097656 0 5.035156 -0.429688 4.171875 -1.296875 C 3.316406 -2.160156 2.890625 -3.21875 2.890625 -4.46875 L 2.890625 -38.5625 C 2.890625 -39.664062 2.828125 -40.785156 2.703125 -41.921875 C 2.585938 -43.054688 2.453125 -44.070312 2.296875 -44.96875 C 2.140625 -45.875 1.960938 -46.523438 1.765625 -46.921875 L 6.765625 -46.921875 C 8.023438 -46.921875 9.085938 -46.476562 9.953125 -45.59375 C 10.816406 -44.71875 11.25 -43.671875 11.25 -42.453125 Z M 11.25 -8.359375 "/></g></g></g><g fill="#0097b2" fill-opacity="1"><g transform="translate(133.900516, 222.98005)"><g><path d="M 27.546875 -8.296875 C 27.546875 -7.203125 27.59375 -6.070312 27.6875 -4.90625 C 27.789062 -3.75 27.929688 -2.71875 28.109375 -1.8125 C 28.285156 -0.914062 28.472656 -0.289062 28.671875 0.0625 L 23.609375 0.0625 C 22.390625 0.0625 21.347656 -0.367188 20.484375 -1.234375 C 19.617188 -2.097656 19.1875 -3.160156 19.1875 -4.421875 L 19.1875 -18.421875 C 19.1875 -18.859375 19.171875 -19.273438 19.140625 -19.671875 C 17.796875 -19.191406 16.390625 -18.5 14.921875 -17.59375 C 13.453125 -16.695312 12.207031 -15.609375 11.1875 -14.328125 C 10.164062 -13.054688 9.65625 -11.617188 9.65625 -10.015625 C 9.65625 -8.242188 10.066406 -6.957031 10.890625 -6.15625 C 11.710938 -5.351562 12.734375 -5 13.953125 -5.09375 C 15.171875 -5.1875 16.347656 -5.707031 17.484375 -6.65625 C 17.328125 -5.125 16.828125 -3.816406 15.984375 -2.734375 C 15.140625 -1.660156 14.15625 -0.835938 13.03125 -0.265625 C 11.914062 0.304688 10.828125 0.59375 9.765625 0.59375 C 8.046875 0.59375 6.554688 0.160156 5.296875 -0.703125 C 4.046875 -1.566406 3.066406 -2.6875 2.359375 -4.0625 C 1.648438 -5.4375 1.296875 -6.867188 1.296875 -8.359375 C 1.296875 -10.242188 1.816406 -11.875 2.859375 -13.25 C 3.898438 -14.625 5.269531 -15.820312 6.96875 -16.84375 C 8.675781 -17.863281 10.550781 -18.785156 12.59375 -19.609375 C 14.632812 -20.429688 16.675781 -21.253906 18.71875 -22.078125 C 18.332031 -23.523438 17.609375 -24.640625 16.546875 -25.421875 C 15.484375 -26.210938 14.03125 -26.609375 12.1875 -26.609375 C 10.96875 -26.609375 9.835938 -26.390625 8.796875 -25.953125 C 7.753906 -25.523438 6.910156 -24.9375 6.265625 -24.1875 C 5.617188 -23.445312 5.296875 -22.625 5.296875 -21.71875 C 4.273438 -22.3125 3.675781 -23.15625 3.5 -24.25 C 3.320312 -25.351562 3.613281 -26.492188 4.375 -27.671875 C 5.144531 -28.847656 6.40625 -29.835938 8.15625 -30.640625 C 9.90625 -31.441406 12.171875 -31.84375 14.953125 -31.84375 C 18.835938 -31.84375 21.898438 -30.722656 24.140625 -28.484375 C 26.378906 -26.253906 27.515625 -22.898438 27.546875 -18.421875 Z M 27.546875 -8.296875 "/></g></g></g><g fill="#0097b2" fill-opacity="1"><g transform="translate(165.92146, 222.98005)"><g><path d="M 11.25 -8.359375 C 11.25 -7.265625 11.304688 -6.132812 11.421875 -4.96875 C 11.535156 -3.8125 11.679688 -2.78125 11.859375 -1.875 C 12.035156 -0.976562 12.203125 -0.351562 12.359375 0 L 7.359375 0 C 6.097656 0 5.035156 -0.429688 4.171875 -1.296875 C 3.316406 -2.160156 2.890625 -3.21875 2.890625 -4.46875 L 2.890625 -38.5625 C 2.890625 -39.664062 2.828125 -40.785156 2.703125 -41.921875 C 2.585938 -43.054688 2.453125 -44.070312 2.296875 -44.96875 C 2.140625 -45.875 1.960938 -46.523438 1.765625 -46.921875 L 6.765625 -46.921875 C 8.023438 -46.921875 9.085938 -46.476562 9.953125 -45.59375 C 10.816406 -44.71875 11.25 -43.671875 11.25 -42.453125 Z M 11.25 -8.359375 "/></g></g></g><g fill="#0097b2" fill-opacity="1"><g transform="translate(182.167529, 222.98005)"><g><path d="M 11.484375 -26.78125 L 11.484375 -8.359375 C 11.484375 -7.265625 11.539062 -6.132812 11.65625 -4.96875 C 11.769531 -3.8125 11.914062 -2.78125 12.09375 -1.875 C 12.269531 -0.976562 12.4375 -0.351562 12.59375 0 L 7.59375 0 C 6.332031 0 5.269531 -0.429688 4.40625 -1.296875 C 3.550781 -2.160156 3.125 -3.21875 3.125 -4.46875 L 3.125 -22.90625 C 3.125 -24 3.0625 -25.125 2.9375 -26.28125 C 2.820312 -27.445312 2.6875 -28.476562 2.53125 -29.375 C 2.375 -30.28125 2.195312 -30.910156 2 -31.265625 L 7 -31.265625 C 8.257812 -31.265625 9.320312 -30.832031 10.1875 -29.96875 C 11.050781 -29.101562 11.484375 -28.039062 11.484375 -26.78125 Z M 6.71875 -36.859375 L 2.40625 -36.859375 C 3.425781 -39.210938 4.300781 -40.9375 5.03125 -42.03125 C 5.757812 -43.132812 6.476562 -43.84375 7.1875 -44.15625 C 7.894531 -44.46875 8.71875 -44.644531 9.65625 -44.6875 L 13.953125 -44.6875 C 12.929688 -42.289062 12.054688 -40.550781 11.328125 -39.46875 C 10.609375 -38.394531 9.894531 -37.703125 9.1875 -37.390625 C 8.476562 -37.078125 7.65625 -36.898438 6.71875 -36.859375 Z M 6.71875 -36.859375 "/></g></g></g><g fill="#0097b2" fill-opacity="1"><g transform="translate(198.590187, 222.98005)"><g><path d="M 27.546875 -8.296875 C 27.546875 -7.203125 27.59375 -6.070312 27.6875 -4.90625 C 27.789062 -3.75 27.929688 -2.71875 28.109375 -1.8125 C 28.285156 -0.914062 28.472656 -0.289062 28.671875 0.0625 L 23.609375 0.0625 C 22.390625 0.0625 21.347656 -0.367188 20.484375 -1.234375 C 19.617188 -2.097656 19.1875 -3.160156 19.1875 -4.421875 L 19.1875 -18.421875 C 19.1875 -18.859375 19.171875 -19.273438 19.140625 -19.671875 C 17.796875 -19.191406 16.390625 -18.5 14.921875 -17.59375 C 13.453125 -16.695312 12.207031 -15.609375 11.1875 -14.328125 C 10.164062 -13.054688 9.65625 -11.617188 9.65625 -10.015625 C 9.65625 -8.242188 10.066406 -6.957031 10.890625 -6.15625 C 11.710938 -5.351562 12.734375 -5 13.953125 -5.09375 C 15.171875 -5.1875 16.347656 -5.707031 17.484375 -6.65625 C 17.328125 -5.125 16.828125 -3.816406 15.984375 -2.734375 C 15.140625 -1.660156 14.15625 -0.835938 13.03125 -0.265625 C 11.914062 0.304688 10.828125 0.59375 9.765625 0.59375 C 8.046875 0.59375 6.554688 0.160156 5.296875 -0.703125 C 4.046875 -1.566406 3.066406 -2.6875 2.359375 -4.0625 C 1.648438 -5.4375 1.296875 -6.867188 1.296875 -8.359375 C 1.296875 -10.242188 1.816406 -11.875 2.859375 -13.25 C 3.898438 -14.625 5.269531 -15.820312 6.96875 -16.84375 C 8.675781 -17.863281 10.550781 -18.785156 12.59375 -19.609375 C 14.632812 -20.429688 16.675781 -21.253906 18.71875 -22.078125 C 18.332031 -23.523438 17.609375 -24.640625 16.546875 -25.421875 C 15.484375 -26.210938 14.03125 -26.609375 12.1875 -26.609375 C 10.96875 -26.609375 9.835938 -26.390625 8.796875 -25.953125 C 7.753906 -25.523438 6.910156 -24.9375 6.265625 -24.1875 C 5.617188 -23.445312 5.296875 -22.625 5.296875 -21.71875 C 4.273438 -22.3125 3.675781 -23.15625 3.5 -24.25 C 3.320312 -25.351562 3.613281 -26.492188 4.375 -27.671875 C 5.144531 -28.847656 6.40625 -29.835938 8.15625 -30.640625 C 9.90625 -31.441406 12.171875 -31.84375 14.953125 -31.84375 C 18.835938 -31.84375 21.898438 -30.722656 24.140625 -28.484375 C 26.378906 -26.253906 27.515625 -22.898438 27.546875 -18.421875 Z M 27.546875 -8.296875 "/></g></g></g><g fill="#0097b2" fill-opacity="1"><g transform="translate(230.611131, 222.98005)"><g><path d="M 32.140625 -8.359375 C 32.140625 -7.265625 32.195312 -6.132812 32.3125 -4.96875 C 32.4375 -3.8125 32.585938 -2.78125 32.765625 -1.875 C 32.941406 -0.976562 33.109375 -0.351562 33.265625 0 L 28.265625 0 C 27.003906 0 25.941406 -0.429688 25.078125 -1.296875 C 24.210938 -2.160156 23.78125 -3.21875 23.78125 -4.46875 L 23.84375 -18.71875 C 23.84375 -21.269531 23.519531 -23.082031 22.875 -24.15625 C 22.226562 -25.238281 21.332031 -25.75 20.1875 -25.6875 C 19.050781 -25.632812 17.738281 -25.109375 16.25 -24.109375 C 14.757812 -23.109375 13.171875 -21.765625 11.484375 -20.078125 L 11.484375 -8.359375 C 11.484375 -7.265625 11.539062 -6.132812 11.65625 -4.96875 C 11.769531 -3.8125 11.914062 -2.78125 12.09375 -1.875 C 12.269531 -0.976562 12.4375 -0.351562 12.59375 0 L 7.59375 0 C 6.332031 0 5.269531 -0.429688 4.40625 -1.296875 C 3.550781 -2.160156 3.125 -3.21875 3.125 -4.46875 L 3.125 -22.90625 C 3.125 -24 3.0625 -25.125 2.9375 -26.28125 C 2.820312 -27.445312 2.6875 -28.476562 2.53125 -29.375 C 2.375 -30.28125 2.195312 -30.910156 2 -31.265625 L 7 -31.265625 C 8.257812 -31.265625 9.320312 -30.832031 10.1875 -29.96875 C 11.050781 -29.101562 11.484375 -28.039062 11.484375 -26.78125 L 11.484375 -23.4375 C 13.523438 -25.320312 15.269531 -26.878906 16.71875 -28.109375 C 18.175781 -29.347656 19.53125 -30.28125 20.78125 -30.90625 C 22.039062 -31.53125 23.414062 -31.84375 24.90625 -31.84375 C 26.863281 -31.84375 28.351562 -31.5 29.375 -30.8125 C 30.394531 -30.132812 31.09375 -29.175781 31.46875 -27.9375 C 31.84375 -26.695312 32.046875 -25.222656 32.078125 -23.515625 C 32.117188 -21.804688 32.140625 -19.929688 32.140625 -17.890625 Z M 32.140625 -8.359375 "/></g></g></g><g fill="#092902" fill-opacity="1"><g transform="translate(47.255337, 259.043556)"><g><path d="M 2.625 0 L 2.625 -21.625 L 8.546875 -21.625 C 10.035156 -21.625 11.429688 -21.335938 12.734375 -20.765625 C 14.046875 -20.203125 15.191406 -19.425781 16.171875 -18.4375 C 17.160156 -17.457031 17.9375 -16.3125 18.5 -15 C 19.0625 -13.695312 19.34375 -12.300781 19.34375 -10.8125 C 19.34375 -9.320312 19.0625 -7.921875 18.5 -6.609375 C 17.9375 -5.304688 17.160156 -4.160156 16.171875 -3.171875 C 15.191406 -2.179688 14.046875 -1.40625 12.734375 -0.84375 C 11.429688 -0.28125 10.035156 0 8.546875 0 Z M 4.90625 -2.3125 L 8.5 -2.3125 C 10.113281 -2.3125 11.5625 -2.679688 12.84375 -3.421875 C 14.132812 -4.171875 15.15625 -5.1875 15.90625 -6.46875 C 16.664062 -7.75 17.046875 -9.195312 17.046875 -10.8125 C 17.046875 -12.445312 16.664062 -13.898438 15.90625 -15.171875 C 15.15625 -16.441406 14.132812 -17.445312 12.84375 -18.1875 C 11.5625 -18.9375 10.113281 -19.3125 8.5 -19.3125 L 4.90625 -19.3125 Z M 4.90625 -2.3125 "/></g></g></g><g fill="#092902" fill-opacity="1"><g transform="translate(71.243833, 259.043556)"><g><path d="M 14.625 -19.390625 L 5.109375 -19.390625 L 5.109375 -11.921875 L 13.40625 -11.921875 L 13.40625 -9.6875 L 5.109375 -9.6875 L 5.109375 -2.234375 L 14.625 -2.234375 L 14.625 0 L 2.8125 0 L 2.8125 -21.625 L 14.625 -21.625 Z M 14.625 -19.390625 "/></g></g></g><g fill="#092902" fill-opacity="1"><g transform="translate(90.910491, 259.043556)"><g><path d="M 8.078125 0.28125 C 6.460938 0.28125 5.023438 -0.117188 3.765625 -0.921875 C 2.503906 -1.722656 1.597656 -2.785156 1.046875 -4.109375 L 3.140625 -5.328125 C 3.523438 -4.347656 4.140625 -3.550781 4.984375 -2.9375 C 5.835938 -2.320312 6.878906 -2.015625 8.109375 -2.015625 C 9.304688 -2.015625 10.328125 -2.328125 11.171875 -2.953125 C 12.015625 -3.578125 12.4375 -4.46875 12.4375 -5.625 C 12.4375 -6.507812 12.179688 -7.234375 11.671875 -7.796875 C 11.171875 -8.359375 10.515625 -8.832031 9.703125 -9.21875 C 8.898438 -9.601562 8.054688 -9.96875 7.171875 -10.3125 C 6.285156 -10.664062 5.4375 -11.082031 4.625 -11.5625 C 3.820312 -12.039062 3.164062 -12.644531 2.65625 -13.375 C 2.15625 -14.113281 1.90625 -15.0625 1.90625 -16.21875 C 1.90625 -17.394531 2.175781 -18.410156 2.71875 -19.265625 C 3.257812 -20.117188 3.984375 -20.769531 4.890625 -21.21875 C 5.804688 -21.675781 6.816406 -21.90625 7.921875 -21.90625 C 9.171875 -21.90625 10.296875 -21.644531 11.296875 -21.125 C 12.296875 -20.613281 13.09375 -19.972656 13.6875 -19.203125 L 11.890625 -17.6875 C 11.003906 -18.96875 9.707031 -19.609375 8 -19.609375 C 6.988281 -19.609375 6.101562 -19.34375 5.34375 -18.8125 C 4.59375 -18.28125 4.21875 -17.472656 4.21875 -16.390625 C 4.21875 -15.523438 4.46875 -14.828125 4.96875 -14.296875 C 5.476562 -13.773438 6.132812 -13.328125 6.9375 -12.953125 C 7.738281 -12.578125 8.582031 -12.210938 9.46875 -11.859375 C 10.363281 -11.515625 11.210938 -11.097656 12.015625 -10.609375 C 12.816406 -10.117188 13.46875 -9.484375 13.96875 -8.703125 C 14.476562 -7.921875 14.734375 -6.914062 14.734375 -5.6875 C 14.734375 -4.4375 14.429688 -3.359375 13.828125 -2.453125 C 13.234375 -1.554688 12.429688 -0.875 11.421875 -0.40625 C 10.410156 0.0507812 9.296875 0.28125 8.078125 0.28125 Z M 8.078125 0.28125 "/></g></g></g><g fill="#092902" fill-opacity="1"><g transform="translate(109.568713, 259.043556)"><g><path d="M 14.59375 -21.625 L 14.59375 -19.3125 L 8.609375 -19.3125 L 8.609375 0 L 6.3125 0 L 6.3125 -19.3125 L 0.328125 -19.3125 L 0.328125 -21.625 Z M 14.59375 -21.625 "/></g></g></g><g fill="#092902" fill-opacity="1"><g transform="translate(127.362571, 259.043556)"><g><path d="M 2.8125 0 L 2.8125 -21.625 L 5.109375 -21.625 L 5.109375 0 Z M 2.8125 0 "/></g></g></g><g fill="#092902" fill-opacity="1"><g transform="translate(138.133423, 259.043556)"><g><path d="M 18.15625 -21.625 L 20.4375 -21.625 L 20.4375 0 L 18.265625 0 L 4.9375 -17.765625 L 4.9375 0 L 2.625 0 L 2.625 -21.625 L 4.796875 -21.625 L 18.15625 -3.859375 Z M 18.15625 -21.625 "/></g></g></g><g fill="#092902" fill-opacity="1"><g transform="translate(164.066756, 259.043556)"><g><path d="M 15.671875 0 L 13.90625 -5.046875 L 4.28125 -5.046875 L 2.515625 0 L 0 0 L 7.8125 -21.625 L 10.375 -21.625 L 18.203125 0 Z M 5.046875 -7.25 L 13.15625 -7.25 L 9.109375 -18.875 Z M 5.046875 -7.25 "/></g></g></g><g fill="#092902" fill-opacity="1"><g transform="translate(185.138018, 259.043556)"><g><path d="M 14.59375 -21.625 L 14.59375 -19.3125 L 8.609375 -19.3125 L 8.609375 0 L 6.3125 0 L 6.3125 -19.3125 L 0.328125 -19.3125 L 0.328125 -21.625 Z M 14.59375 -21.625 "/></g></g></g><g fill="#092902" fill-opacity="1"><g transform="translate(202.931868, 259.043556)"><g><path d="M 2.8125 0 L 2.8125 -21.625 L 5.109375 -21.625 L 5.109375 0 Z M 2.8125 0 "/></g></g></g><g fill="#092902" fill-opacity="1"><g transform="translate(213.702711, 259.043556)"><g><path d="M 12.859375 0.28125 C 11.328125 0.28125 9.894531 -0.00390625 8.5625 -0.578125 C 7.226562 -1.148438 6.050781 -1.945312 5.03125 -2.96875 C 4.007812 -3.988281 3.207031 -5.164062 2.625 -6.5 C 2.050781 -7.832031 1.765625 -9.269531 1.765625 -10.8125 C 1.765625 -12.34375 2.050781 -13.773438 2.625 -15.109375 C 3.207031 -16.441406 4.007812 -17.617188 5.03125 -18.640625 C 6.050781 -19.660156 7.226562 -20.457031 8.5625 -21.03125 C 9.894531 -21.613281 11.328125 -21.90625 12.859375 -21.90625 C 14.398438 -21.90625 15.84375 -21.613281 17.1875 -21.03125 C 18.53125 -20.457031 19.707031 -19.660156 20.71875 -18.640625 C 21.726562 -17.617188 22.519531 -16.441406 23.09375 -15.109375 C 23.675781 -13.773438 23.96875 -12.34375 23.96875 -10.8125 C 23.96875 -9.269531 23.675781 -7.832031 23.09375 -6.5 C 22.519531 -5.164062 21.726562 -3.988281 20.71875 -2.96875 C 19.707031 -1.945312 18.53125 -1.148438 17.1875 -0.578125 C 15.84375 -0.00390625 14.398438 0.28125 12.859375 0.28125 Z M 12.859375 -2.015625 C 14.492188 -2.015625 15.976562 -2.40625 17.3125 -3.1875 C 18.644531 -3.96875 19.703125 -5.023438 20.484375 -6.359375 C 21.265625 -7.691406 21.65625 -9.175781 21.65625 -10.8125 C 21.65625 -12.445312 21.265625 -13.929688 20.484375 -15.265625 C 19.703125 -16.597656 18.644531 -17.65625 17.3125 -18.4375 C 15.976562 -19.21875 14.492188 -19.609375 12.859375 -19.609375 C 11.253906 -19.609375 9.785156 -19.21875 8.453125 -18.4375 C 7.117188 -17.65625 6.054688 -16.597656 5.265625 -15.265625 C 4.472656 -13.929688 4.078125 -12.445312 4.078125 -10.8125 C 4.078125 -9.175781 4.472656 -7.691406 5.265625 -6.359375 C 6.054688 -5.023438 7.117188 -3.96875 8.453125 -3.1875 C 9.785156 -2.40625 11.253906 -2.015625 12.859375 -2.015625 Z M 12.859375 -2.015625 "/></g></g></g><g fill="#092902" fill-opacity="1"><g transform="translate(242.337188, 259.043556)"><g><path d="M 18.15625 -21.625 L 20.4375 -21.625 L 20.4375 0 L 18.265625 0 L 4.9375 -17.765625 L 4.9375 0 L 2.625 0 L 2.625 -21.625 L 4.796875 -21.625 L 18.15625 -3.859375 Z M 18.15625 -21.625 "/></g></g></g><g fill="#092902" fill-opacity="1"><g transform="translate(47.255337, 299.03088)"><g><path d="M 12.9375 -11.453125 L 24.078125 -11.453125 L 24.078125 -10.8125 C 24.078125 -9.269531 23.785156 -7.832031 23.203125 -6.5 C 22.628906 -5.164062 21.832031 -3.988281 20.8125 -2.96875 C 19.789062 -1.945312 18.613281 -1.148438 17.28125 -0.578125 C 15.945312 -0.00390625 14.507812 0.28125 12.96875 0.28125 C 11.4375 0.28125 9.992188 -0.00390625 8.640625 -0.578125 C 7.296875 -1.148438 6.117188 -1.945312 5.109375 -2.96875 C 4.109375 -3.988281 3.316406 -5.164062 2.734375 -6.5 C 2.160156 -7.832031 1.875 -9.269531 1.875 -10.8125 C 1.875 -12.34375 2.160156 -13.773438 2.734375 -15.109375 C 3.316406 -16.441406 4.109375 -17.617188 5.109375 -18.640625 C 6.117188 -19.660156 7.296875 -20.457031 8.640625 -21.03125 C 9.992188 -21.613281 11.4375 -21.90625 12.96875 -21.90625 C 15.039062 -21.90625 16.925781 -21.390625 18.625 -20.359375 C 20.332031 -19.328125 21.65625 -17.96875 22.59375 -16.28125 L 20.609375 -15.171875 C 19.867188 -16.515625 18.816406 -17.585938 17.453125 -18.390625 C 16.097656 -19.203125 14.601562 -19.609375 12.96875 -19.609375 C 11.363281 -19.609375 9.894531 -19.21875 8.5625 -18.4375 C 7.226562 -17.65625 6.164062 -16.597656 5.375 -15.265625 C 4.582031 -13.929688 4.1875 -12.445312 4.1875 -10.8125 C 4.1875 -9.175781 4.582031 -7.691406 5.375 -6.359375 C 6.164062 -5.023438 7.226562 -3.96875 8.5625 -3.1875 C 9.894531 -2.40625 11.363281 -2.015625 12.96875 -2.015625 C 14.4375 -2.015625 15.78125 -2.332031 17 -2.96875 C 18.226562 -3.601562 19.25 -4.46875 20.0625 -5.5625 C 20.882812 -6.65625 21.40625 -7.898438 21.625 -9.296875 L 12.9375 -9.296875 Z M 12.9375 -11.453125 "/></g></g></g><g fill="#092902" fill-opacity="1"><g transform="translate(76.033888, 299.03088)"><g><path d="M 10.625 0.28125 C 9.0625 0.28125 7.664062 -0.0351562 6.4375 -0.671875 C 5.21875 -1.304688 4.257812 -2.179688 3.5625 -3.296875 C 2.863281 -4.410156 2.515625 -5.675781 2.515625 -7.09375 L 2.515625 -21.625 L 4.828125 -21.625 L 4.828125 -7.453125 C 4.828125 -6.421875 5.078125 -5.488281 5.578125 -4.65625 C 6.085938 -3.832031 6.78125 -3.1875 7.65625 -2.71875 C 8.53125 -2.25 9.519531 -2.015625 10.625 -2.015625 C 11.757812 -2.015625 12.765625 -2.25 13.640625 -2.71875 C 14.515625 -3.1875 15.203125 -3.832031 15.703125 -4.65625 C 16.210938 -5.488281 16.46875 -6.421875 16.46875 -7.453125 L 16.46875 -21.625 L 18.78125 -21.625 L 18.78125 -7.09375 C 18.78125 -5.675781 18.429688 -4.410156 17.734375 -3.296875 C 17.035156 -2.179688 16.070312 -1.304688 14.84375 -0.671875 C 13.625 -0.0351562 12.21875 0.28125 10.625 0.28125 Z M 10.625 0.28125 "/></g></g></g><g fill="#092902" fill-opacity="1"><g transform="translate(100.202467, 299.03088)"><g><path d="M 2.8125 0 L 2.8125 -21.625 L 5.109375 -21.625 L 5.109375 0 Z M 2.8125 0 "/></g></g></g><g fill="#092902" fill-opacity="1"><g transform="translate(110.973315, 299.03088)"><g><path d="M 2.625 0 L 2.625 -21.625 L 8.546875 -21.625 C 10.035156 -21.625 11.429688 -21.335938 12.734375 -20.765625 C 14.046875 -20.203125 15.191406 -19.425781 16.171875 -18.4375 C 17.160156 -17.457031 17.9375 -16.3125 18.5 -15 C 19.0625 -13.695312 19.34375 -12.300781 19.34375 -10.8125 C 19.34375 -9.320312 19.0625 -7.921875 18.5 -6.609375 C 17.9375 -5.304688 17.160156 -4.160156 16.171875 -3.171875 C 15.191406 -2.179688 14.046875 -1.40625 12.734375 -0.84375 C 11.429688 -0.28125 10.035156 0 8.546875 0 Z M 4.90625 -2.3125 L 8.5 -2.3125 C 10.113281 -2.3125 11.5625 -2.679688 12.84375 -3.421875 C 14.132812 -4.171875 15.15625 -5.1875 15.90625 -6.46875 C 16.664062 -7.75 17.046875 -9.195312 17.046875 -10.8125 C 17.046875 -12.445312 16.664062 -13.898438 15.90625 -15.171875 C 15.15625 -16.441406 14.132812 -17.445312 12.84375 -18.1875 C 11.5625 -18.9375 10.113281 -19.3125 8.5 -19.3125 L 4.90625 -19.3125 Z M 4.90625 -2.3125 "/></g></g></g><g fill="#092902" fill-opacity="1"><g transform="translate(134.961813, 299.03088)"><g><path d="M 14.625 -19.390625 L 5.109375 -19.390625 L 5.109375 -11.921875 L 13.40625 -11.921875 L 13.40625 -9.6875 L 5.109375 -9.6875 L 5.109375 -2.234375 L 14.625 -2.234375 L 14.625 0 L 2.8125 0 L 2.8125 -21.625 L 14.625 -21.625 Z M 14.625 -19.390625 "/></g></g></g></svg>